<svg width="25" height="25" viewBox="0 0 25 25" fill="none" xmlns="http://www.w3.org/2000/svg">
<path d="M7.86616 2.5H16.2662C19.4662 2.5 22.0662 5.1 22.0662 8.3V16.7C22.0662 18.2383 21.4551 19.7135 20.3674 20.8012C19.2797 21.8889 17.8044 22.5 16.2662 22.5H7.86616C4.66616 22.5 2.06616 19.9 2.06616 16.7V8.3C2.06616 6.76174 2.67723 5.28649 3.76494 4.19878C4.85265 3.11107 6.32791 2.5 7.86616 2.5ZM7.66616 4.5C6.71138 4.5 5.79571 4.87928 5.12058 5.55442C4.44545 6.22955 4.06616 7.14522 4.06616 8.1V16.9C4.06616 18.89 5.67616 20.5 7.66616 20.5H16.4662C17.4209 20.5 18.3366 20.1207 19.0117 19.4456C19.6869 18.7705 20.0662 17.8548 20.0662 16.9V8.1C20.0662 6.11 18.4562 4.5 16.4662 4.5H7.66616ZM17.3162 6C17.6477 6 17.9656 6.1317 18.2 6.36612C18.4345 6.60054 18.5662 6.91848 18.5662 7.25C18.5662 7.58152 18.4345 7.89946 18.2 8.13388C17.9656 8.3683 17.6477 8.5 17.3162 8.5C16.9846 8.5 16.6667 8.3683 16.4323 8.13388C16.1979 7.89946 16.0662 7.58152 16.0662 7.25C16.0662 6.91848 16.1979 6.60054 16.4323 6.36612C16.6667 6.1317 16.9846 6 17.3162 6ZM12.0662 7.5C13.3922 7.5 14.664 8.02678 15.6017 8.96447C16.5394 9.90215 17.0662 11.1739 17.0662 12.5C17.0662 13.8261 16.5394 15.0979 15.6017 16.0355C14.664 16.9732 13.3922 17.5 12.0662 17.5C10.7401 17.5 9.46831 16.9732 8.53063 16.0355C7.59295 15.0979 7.06616 13.8261 7.06616 12.5C7.06616 11.1739 7.59295 9.90215 8.53063 8.96447C9.46831 8.02678 10.7401 7.5 12.0662 7.5ZM12.0662 9.5C11.2705 9.5 10.5075 9.81607 9.94484 10.3787C9.38223 10.9413 9.06616 11.7044 9.06616 12.5C9.06616 13.2956 9.38223 14.0587 9.94484 14.6213C10.5075 15.1839 11.2705 15.5 12.0662 15.5C12.8618 15.5 13.6249 15.1839 14.1875 14.6213C14.7501 14.0587 15.0662 13.2956 15.0662 12.5C15.0662 11.7044 14.7501 10.9413 14.1875 10.3787C13.6249 9.81607 12.8618 9.5 12.0662 9.5Z" fill="white"/>
</svg>
