<svg width="25" height="25" viewBox="0 0 25 25" fill="none" xmlns="http://www.w3.org/2000/svg">
<path d="M16.6662 6.32C15.9826 5.53962 15.6059 4.53743 15.6062 3.5H12.5162V15.9C12.4923 16.571 12.209 17.2066 11.7259 17.6729C11.2428 18.1393 10.5976 18.3999 9.92617 18.4C8.50617 18.4 7.32617 17.24 7.32617 15.8C7.32617 14.08 8.98617 12.79 10.6962 13.32V10.16C7.24617 9.7 4.22617 12.38 4.22617 15.8C4.22617 19.13 6.98617 21.5 9.91617 21.5C13.0562 21.5 15.6062 18.95 15.6062 15.8V9.51C16.8592 10.4099 18.3635 10.8926 19.9062 10.89V7.8C19.9062 7.8 18.0262 7.89 16.6662 6.32Z" fill="white"/>
</svg>
