<svg width="25" height="25" viewBox="0 0 25 25" fill="none" xmlns="http://www.w3.org/2000/svg">
<path d="M19.1162 5.41C18.1994 4.48392 17.1073 3.74967 15.9038 3.25005C14.7003 2.75043 13.4093 2.49546 12.1062 2.5C6.64616 2.5 2.19617 6.95 2.19617 12.41C2.19617 14.16 2.65617 15.86 3.51617 17.36L2.11617 22.5L7.36617 21.12C8.81616 21.91 10.4462 22.33 12.1062 22.33C17.5662 22.33 22.0162 17.88 22.0162 12.42C22.0162 9.77 20.9862 7.28 19.1162 5.41ZM12.1062 20.65C10.6262 20.65 9.17617 20.25 7.90617 19.5L7.60616 19.32L4.48617 20.14L5.31617 17.1L5.11617 16.79C4.29391 15.477 3.85731 13.9592 3.85617 12.41C3.85617 7.87 7.55616 4.17 12.0962 4.17C14.2962 4.17 16.3662 5.03 17.9162 6.59C18.6836 7.35396 19.2919 8.26266 19.7056 9.26342C20.1193 10.2642 20.3302 11.3371 20.3262 12.42C20.3462 16.96 16.6462 20.65 12.1062 20.65ZM16.6262 14.49C16.3762 14.37 15.1562 13.77 14.9362 13.68C14.7062 13.6 14.5462 13.56 14.3762 13.8C14.2062 14.05 13.7362 14.61 13.5962 14.77C13.4562 14.94 13.3062 14.96 13.0562 14.83C12.8062 14.71 12.0062 14.44 11.0662 13.6C10.3262 12.94 9.83616 12.13 9.68616 11.88C9.54616 11.63 9.66616 11.5 9.79616 11.37C9.90616 11.26 10.0462 11.08 10.1662 10.94C10.2862 10.8 10.3362 10.69 10.4162 10.53C10.4962 10.36 10.4562 10.22 10.3962 10.1C10.3362 9.98 9.83616 8.76 9.63616 8.26C9.43616 7.78 9.22617 7.84 9.07617 7.83H8.59616C8.42616 7.83 8.16616 7.89 7.93616 8.14C7.71617 8.39 7.07617 8.99 7.07617 10.21C7.07617 11.43 7.96617 12.61 8.08617 12.77C8.20617 12.94 9.83616 15.44 12.3162 16.51C12.9062 16.77 13.3662 16.92 13.7262 17.03C14.3162 17.22 14.8562 17.19 15.2862 17.13C15.7662 17.06 16.7562 16.53 16.9562 15.95C17.1662 15.37 17.1662 14.88 17.0962 14.77C17.0262 14.66 16.8762 14.61 16.6262 14.49Z" fill="white"/>
</svg>
