<?xml version="1.0" encoding="UTF-8"?>
<!DOCTYPE svg PUBLIC "-//W3C//DTD SVG 1.1//EN" "http://www.w3.org/Graphics/SVG/1.1/DTD/svg11.dtd">
<svg xmlns="http://www.w3.org/2000/svg" version="1.1" width="409px" height="245px" style="shape-rendering:geometricPrecision; text-rendering:geometricPrecision; image-rendering:optimizeQuality; fill-rule:evenodd; clip-rule:evenodd" xmlns:xlink="http://www.w3.org/1999/xlink">
<g><path style="opacity:1" fill="#2a2b29" d="M 195.5,-0.5 C 201.5,-0.5 207.5,-0.5 213.5,-0.5C 217.335,0.461311 221.335,1.29464 225.5,2C 226.056,2.38258 226.389,2.88258 226.5,3.5C 214.015,1.68149 201.349,1.01482 188.5,1.5C 190.833,0.833333 193.167,0.166667 195.5,-0.5 Z"/></g>
<g><path style="opacity:1" fill="#1c1d1c" d="M 188.5,1.5 C 201.349,1.01482 214.015,1.68149 226.5,3.5C 248.166,12.4382 259.833,28.7716 261.5,52.5C 267.613,54.1402 273.447,56.4735 279,59.5C 284.137,54.6674 288.97,49.5008 293.5,44C 294.094,43.5357 294.761,43.369 295.5,43.5C 295.047,44.4584 294.381,45.2917 293.5,46C 294.711,47.1131 294.711,48.2798 293.5,49.5C 291.618,51.6082 289.285,52.9415 286.5,53.5C 285.159,56.8439 283.492,60.0106 281.5,63C 279.833,63.6667 278.167,63.6667 276.5,63C 273.928,60.7132 270.928,59.5465 267.5,59.5C 267.167,59.5 266.833,59.5 266.5,59.5C 264.584,57.023 261.917,56.023 258.5,56.5C 260.743,54.6267 260.91,52.6267 259,50.5C 258.586,50.9574 258.086,51.2907 257.5,51.5C 256.671,48.1981 256.004,44.8648 255.5,41.5C 258.778,37.3889 257.778,35.3889 252.5,35.5C 252.664,32.8127 252.497,30.146 252,27.5C 249.379,25.8821 247.046,23.8821 245,21.5C 244.51,20.2068 244.343,18.8734 244.5,17.5C 243.5,17.5 242.5,17.5 241.5,17.5C 241.5,16.5 241.5,15.5 241.5,14.5C 239.5,14.5 237.5,14.5 235.5,14.5C 231.385,9.67358 226.051,7.34024 219.5,7.5C 218.448,5.74395 216.781,5.07729 214.5,5.5C 214.41,8.34602 213.244,10.6794 211,12.5C 210.308,11.9747 209.808,11.3081 209.5,10.5C 204.916,10.0188 200.583,8.85217 196.5,7C 198.657,5.91533 198.824,4.74866 197,3.5C 193.356,5.02147 189.523,5.85481 185.5,6C 184.748,6.67076 184.414,7.5041 184.5,8.5C 179.879,9.43624 175.879,11.6029 172.5,15C 171.207,15.49 169.873,15.6567 168.5,15.5C 168.5,16.8333 168.5,18.1667 168.5,19.5C 165.392,22.2181 161.725,24.2181 157.5,25.5C 158.75,23.0676 160.25,20.7343 162,18.5C 165.67,15.2661 169.17,11.9328 172.5,8.5C 177.057,4.55823 182.391,2.2249 188.5,1.5 Z"/></g>
<g><path style="opacity:1" fill="#042a2c" d="M 184.5,8.5 C 182.3,10.6404 179.633,12.1404 176.5,13C 174.959,14.3712 173.625,15.8712 172.5,17.5C 170.938,17.7329 169.605,18.3995 168.5,19.5C 168.5,18.1667 168.5,16.8333 168.5,15.5C 169.873,15.6567 171.207,15.49 172.5,15C 175.879,11.6029 179.879,9.43624 184.5,8.5 Z"/></g>
<g><path style="opacity:1" fill="#24686f" d="M 191.5,10.5 C 188.932,9.35694 186.265,9.52361 183.5,11C 179.5,12.7102 175.833,14.8769 172.5,17.5C 173.625,15.8712 174.959,14.3712 176.5,13C 179.633,12.1404 182.3,10.6404 184.5,8.5C 187.518,8.29619 190.518,7.96286 193.5,7.5C 193.715,9.17876 193.048,10.1788 191.5,10.5 Z"/></g>
<g><path style="opacity:1" fill="#0a2d2f" d="M 219.5,7.5 C 226.051,7.34024 231.385,9.67358 235.5,14.5C 237.042,15.1635 238.709,15.8302 240.5,16.5C 240.291,17.086 239.957,17.586 239.5,18C 240.823,18.8159 241.489,19.9826 241.5,21.5C 239.427,19.4202 237.093,17.7536 234.5,16.5C 232.906,15.017 231.24,13.517 229.5,12C 225.958,10.7245 222.625,9.22452 219.5,7.5 Z"/></g>
<g><path style="opacity:1" fill="#22909a" d="M 219.5,7.5 C 222.625,9.22452 225.958,10.7245 229.5,12C 231.24,13.517 232.906,15.017 234.5,16.5C 232.45,16.0388 230.45,15.3721 228.5,14.5C 228.167,15.1667 227.833,15.8333 227.5,16.5C 229.608,19.1566 230.941,22.1566 231.5,25.5C 229.473,24.1394 227.806,22.4727 226.5,20.5C 224.21,16.2095 220.876,12.8762 216.5,10.5C 215.614,9.67504 215.281,8.67504 215.5,7.5C 216.833,7.5 218.167,7.5 219.5,7.5 Z"/></g>
<g><path style="opacity:0.38" fill="#2c2d2d" d="M 172.5,8.5 C 169.17,11.9328 165.67,15.2661 162,18.5C 160.25,20.7343 158.75,23.0676 157.5,25.5C 156.89,26.391 156.557,27.391 156.5,28.5C 155.503,28.4701 154.836,28.9701 154.5,30C 151.316,37.8606 149.649,46.0273 149.5,54.5C 146.833,54.5 144.167,54.5 141.5,54.5C 142.99,52.7202 144.99,52.0535 147.5,52.5C 148.363,33.3675 156.696,18.7008 172.5,8.5 Z"/></g>
<g><path style="opacity:1" fill="#105558" d="M 187.5,14.5 C 185.157,17.2072 182.823,19.8739 180.5,22.5C 181.45,18.5865 183.783,15.9198 187.5,14.5 Z"/></g>
<g><path style="opacity:1" fill="#fc2951" d="M 98.5,36.5 C 103.509,40.669 108.509,44.8357 113.5,49C 117.365,53.6941 121.365,58.1941 125.5,62.5C 126.655,65.4749 128.322,68.1416 130.5,70.5C 133.07,74.2093 135.07,78.2093 136.5,82.5C 136.694,84.9118 138.027,85.9118 140.5,85.5C 140.737,84.209 140.404,83.209 139.5,82.5C 137.656,78.1362 135.323,74.1362 132.5,70.5C 132.016,67.2118 133.016,64.5452 135.5,62.5C 137.674,62.2503 139.341,61.2503 140.5,59.5C 143.852,58.4473 147.185,58.4473 150.5,59.5C 151.94,64.5141 153.94,69.1807 156.5,73.5C 156.654,75.9699 157.654,77.9699 159.5,79.5C 159.5,79.8333 159.5,80.1667 159.5,80.5C 167.596,92.9252 178.929,100.592 193.5,103.5C 194.603,123.347 194.27,143.18 192.5,163C 192.759,164.261 193.426,165.261 194.5,166C 201.014,166.82 207.347,166.653 213.5,165.5C 214.167,165.5 214.5,165.167 214.5,164.5C 216.026,163.508 216.693,162.008 216.5,160C 215.612,151.859 215.279,143.692 215.5,135.5C 215.334,125.494 215.5,115.494 216,105.5C 216.717,104.956 217.217,104.289 217.5,103.5C 223.077,101.05 228.743,98.5505 234.5,96C 235.381,95.2917 236.047,94.4584 236.5,93.5C 243.273,89.3939 248.273,83.7272 251.5,76.5C 254.399,71.1548 256.732,65.4881 258.5,59.5C 261.16,58.2974 263.827,58.2974 266.5,59.5C 266.833,59.5 267.167,59.5 267.5,59.5C 270.681,61.5917 273.681,63.925 276.5,66.5C 276.222,70.9444 274.389,74.611 271,77.5C 269.85,79.7538 269.516,82.0871 270,84.5C 273.042,78.5262 276.542,72.8596 280.5,67.5C 286.885,58.6078 294.218,50.4412 302.5,43C 308.657,38.3408 314.657,33.5074 320.5,28.5C 325.787,25.858 330.787,22.858 335.5,19.5C 335.833,19.5 336.167,19.5 336.5,19.5C 338.199,19.3398 339.866,19.5065 341.5,20C 342.022,20.5613 342.355,21.228 342.5,22C 340.68,24.6522 338.68,27.1522 336.5,29.5C 331.135,34.8641 326.135,40.5308 321.5,46.5C 318.466,49.8721 315.799,53.5388 313.5,57.5C 306.035,67.3024 299.368,77.6357 293.5,88.5C 293.938,89.5063 294.604,89.5063 295.5,88.5C 299.825,81.8392 304.158,75.1726 308.5,68.5C 310.396,67.5344 312.396,67.2011 314.5,67.5C 315.099,72.7608 315.932,78.0942 317,83.5C 321.072,84.0508 325.239,84.0508 329.5,83.5C 331.498,89.5403 333.498,95.5403 335.5,101.5C 336.815,102.667 337.481,104.167 337.5,106C 336.388,108.076 335.888,110.243 336,112.5C 339.076,110.574 342.242,108.908 345.5,107.5C 345.833,107.5 346.167,107.5 346.5,107.5C 346.833,108.5 347.5,109.167 348.5,109.5C 349.228,113.735 351.395,117.069 355,119.5C 356.274,122.391 357.774,125.058 359.5,127.5C 359.66,129.153 360.326,130.486 361.5,131.5C 362.317,134.479 363.151,137.479 364,140.5C 366.325,147.505 363.825,151.338 356.5,152C 350.612,153.628 344.612,154.628 338.5,155C 337.01,155.745 336.01,156.912 335.5,158.5C 337.324,163.478 340.157,167.811 344,171.5C 344.667,173.833 344.667,176.167 344,178.5C 329.815,194.857 313.648,208.857 295.5,220.5C 282.83,228.287 269.163,233.954 254.5,237.5C 246.881,238.268 239.214,238.768 231.5,239C 231.043,239.414 230.709,239.914 230.5,240.5C 233.977,241.167 237.311,241.834 240.5,242.5C 237.39,243.088 234.39,243.755 231.5,244.5C 223.5,244.5 215.5,244.5 207.5,244.5C 197.339,243.522 187.006,242.855 176.5,242.5C 176.577,241.25 177.244,240.417 178.5,240C 178.167,239.667 177.833,239.333 177.5,239C 169.786,238.768 162.119,238.268 154.5,237.5C 143.918,234.938 133.585,231.604 123.5,227.5C 103.589,215.466 85.4219,200.799 69,183.5C 66.7574,180.926 64.924,178.092 63.5,175C 65.1543,171.504 67.1543,168.337 69.5,165.5C 73.1468,162.779 73.8134,159.612 71.5,156C 65.218,154.589 58.8846,153.423 52.5,152.5C 52.1667,152.5 51.8333,152.5 51.5,152.5C 49.1795,151.582 47.0129,150.248 45,148.5C 44.3333,145.833 44.3333,143.167 45,140.5C 47.5196,132.463 50.8529,124.796 55,117.5C 58.155,116.181 59.9884,113.848 60.5,110.5C 60.5,110.167 60.5,109.833 60.5,109.5C 60.8333,108.5 61.5,107.833 62.5,107.5C 63.5,107.5 64.5,107.5 65.5,107.5C 66.795,108.488 68.1283,109.488 69.5,110.5C 70.7804,111.931 72.4471,112.598 74.5,112.5C 74.7148,110.821 74.0481,109.821 72.5,109.5C 71.1667,107.167 71.1667,104.833 72.5,102.5C 73.9063,102.027 74.573,101.027 74.5,99.5C 76.075,95.0699 77.2417,90.4032 78,85.5C 81.4633,83.2924 85.13,82.9591 89,84.5C 90.301,84.3613 91.1344,83.6946 91.5,82.5C 92.3382,82.1583 92.6716,81.4916 92.5,80.5C 93.2202,76.2703 93.8868,71.937 94.5,67.5C 95.7382,66.5876 97.0715,66.4209 98.5,67C 101.512,69.5377 104.179,72.371 106.5,75.5C 104.686,71.2077 102.353,67.2077 99.5,63.5C 97.0383,58.7494 94.0383,54.416 90.5,50.5C 90.5,49.8333 90.1667,49.5 89.5,49.5C 83.3056,40.5242 76.1389,32.1908 68,24.5C 67.0663,19.9167 68.8996,18.4167 73.5,20C 81.8618,25.5103 90.1952,31.0103 98.5,36.5 Z"/></g>
<g><path style="opacity:1" fill="#0f1e1f" d="M 235.5,14.5 C 237.5,14.5 239.5,14.5 241.5,14.5C 241.5,15.5 241.5,16.5 241.5,17.5C 242.5,17.5 243.5,17.5 244.5,17.5C 244.343,18.8734 244.51,20.2068 245,21.5C 247.046,23.8821 249.379,25.8821 252,27.5C 252.497,30.146 252.664,32.8127 252.5,35.5C 257.778,35.3889 258.778,37.3889 255.5,41.5C 256.004,44.8648 256.671,48.1981 257.5,51.5C 258.086,51.2907 258.586,50.9574 259,50.5C 260.91,52.6267 260.743,54.6267 258.5,56.5C 256.926,57.9842 255.593,59.6508 254.5,61.5C 254.666,54.825 254.5,48.1583 254,41.5C 253.901,39.3474 253.067,37.6808 251.5,36.5C 249.419,30.6735 246.086,25.6735 241.5,21.5C 241.489,19.9826 240.823,18.8159 239.5,18C 239.957,17.586 240.291,17.086 240.5,16.5C 238.709,15.8302 237.042,15.1635 235.5,14.5 Z"/></g>
<g><path style="opacity:1" fill="#20838b" d="M 241.5,21.5 C 246.086,25.6735 249.419,30.6735 251.5,36.5C 254.11,46.297 254.11,55.9637 251.5,65.5C 251.666,57.16 251.5,48.8267 251,40.5C 248.63,35.112 245.63,30.112 242,25.5C 241.51,24.2068 241.343,22.8734 241.5,21.5 Z"/></g>
<g><path style="opacity:1" fill="#211e1e" d="M 118.5,47.5 C 116.394,46.2171 114.06,45.3838 111.5,45C 108.909,39.6928 104.576,36.8595 98.5,36.5C 95.7813,34.0759 93.7813,31.0759 92.5,27.5C 87.8877,25.4646 83.5544,22.9646 79.5,20C 75.2214,18.7561 70.888,18.4228 66.5,19C 65.7362,21.0693 65.2362,23.236 65,25.5C 63.583,26.0779 62.7496,27.0779 62.5,28.5C 61.596,29.209 61.2627,30.209 61.5,31.5C 60.2101,32.0577 59.3768,33.0577 59,34.5C 57.3723,46.9741 57.2057,59.3074 58.5,71.5C 58.5,71.8333 58.5,72.1667 58.5,72.5C 58.5,75.1667 58.5,77.8333 58.5,80.5C 56.7085,80.634 55.0418,80.3007 53.5,79.5C 50.2418,60.2419 51.4084,41.2419 57,22.5C 58.9113,18.4839 61.4113,14.9839 64.5,12C 66.1667,11.3333 67.8333,11.3333 69.5,12C 87.6935,21.3742 104.027,33.2076 118.5,47.5 Z"/></g>
<g><path style="opacity:1" fill="#78796e" d="M 62.5,28.5 C 63.791,28.2627 64.791,28.596 65.5,29.5C 63.5,29.5 62.5,30.5 62.5,32.5C 62.1667,32.5 61.8333,32.5 61.5,32.5C 61.5,32.1667 61.5,31.8333 61.5,31.5C 61.2627,30.209 61.596,29.209 62.5,28.5 Z"/></g>
<g><path style="opacity:1" fill="#152426" d="M 219.5,7.5 C 218.167,7.5 216.833,7.5 215.5,7.5C 215.281,8.67504 215.614,9.67504 216.5,10.5C 220.876,12.8762 224.21,16.2095 226.5,20.5C 226.34,22.1992 226.506,23.8659 227,25.5C 228.67,28.4424 230.337,31.4424 232,34.5C 232.5,41.1583 232.666,47.825 232.5,54.5C 232.606,57.6145 231.606,60.2812 229.5,62.5C 226.791,65.2085 224.458,68.2085 222.5,71.5C 220.167,72.1667 217.833,72.8333 215.5,73.5C 217.206,71.9273 218.373,69.9273 219,67.5C 221.08,65.8767 223.246,64.3767 225.5,63C 221.325,62.6545 218.992,60.4878 218.5,56.5C 218.806,53.6146 218.473,50.9479 217.5,48.5C 217.002,45.6737 215.669,43.3403 213.5,41.5C 211.833,40.5 210.5,39.1667 209.5,37.5C 209.389,36.8826 209.056,36.3826 208.5,36C 204.095,35.3041 199.761,35.6374 195.5,37C 194.603,39.0871 193.936,41.2537 193.5,43.5C 193.068,44.7095 192.401,45.7095 191.5,46.5C 190.687,45.3473 189.687,45.3473 188.5,46.5C 187.485,49.2763 186.485,51.9429 185.5,54.5C 185.5,52.5 185.5,50.5 185.5,48.5C 185.5,47.8333 185.5,47.1667 185.5,46.5C 187.245,44.9674 188.245,42.9674 188.5,40.5C 191.833,37.8333 194.833,34.8333 197.5,31.5C 198.167,31.1667 198.833,30.8333 199.5,30.5C 201.452,30.0051 203.452,29.6718 205.5,29.5C 208.722,30.4036 211.722,31.7369 214.5,33.5C 216.909,35.9024 218.909,38.5691 220.5,41.5C 221.392,46.5152 222.392,51.5152 223.5,56.5C 225.833,57.9415 227.166,57.2748 227.5,54.5C 228.508,47.5282 228.675,40.5282 228,33.5C 227.623,32.0577 226.79,31.0577 225.5,30.5C 225.139,26.7781 223.472,23.7781 220.5,21.5C 216.819,18.0016 212.819,15.0016 208.5,12.5C 207.504,11.3349 206.171,10.6682 204.5,10.5C 197.145,11.8606 191.812,15.8606 188.5,22.5C 185.223,25.1013 183.223,28.4346 182.5,32.5C 180.981,35.5256 180.315,38.8589 180.5,42.5C 180.503,45.0254 180.837,47.3587 181.5,49.5C 181.5,50.8333 181.5,52.1667 181.5,53.5C 181.833,54.8333 182.167,56.1667 182.5,57.5C 182.5,60.1667 182.5,62.8333 182.5,65.5C 181.527,63.8608 180.194,62.5274 178.5,61.5C 178.5,61.1667 178.5,60.8333 178.5,60.5C 176.846,54.7262 175.512,48.8929 174.5,43C 174.857,38.7704 175.523,34.6037 176.5,30.5C 176.974,27.3714 178.308,24.7047 180.5,22.5C 182.823,19.8739 185.157,17.2072 187.5,14.5C 188.5,12.8333 189.833,11.5 191.5,10.5C 193.048,10.1788 193.715,9.17876 193.5,7.5C 190.518,7.96286 187.518,8.29619 184.5,8.5C 184.414,7.5041 184.748,6.67076 185.5,6C 189.523,5.85481 193.356,5.02147 197,3.5C 198.824,4.74866 198.657,5.91533 196.5,7C 200.583,8.85217 204.916,10.0188 209.5,10.5C 209.808,11.3081 210.308,11.9747 211,12.5C 213.244,10.6794 214.41,8.34602 214.5,5.5C 216.781,5.07729 218.448,5.74395 219.5,7.5 Z"/></g>
<g><path style="opacity:1" fill="#769196" d="M 220.5,21.5 C 223.472,23.7781 225.139,26.7781 225.5,30.5C 222.544,28.2118 220.877,25.2118 220.5,21.5 Z"/></g>
<g><path style="opacity:1" fill="#95c7cc" d="M 208.5,12.5 C 212.819,15.0016 216.819,18.0016 220.5,21.5C 220.877,25.2118 222.544,28.2118 225.5,30.5C 227.824,38.3812 228.157,46.3812 226.5,54.5C 225.528,55.7514 224.861,55.418 224.5,53.5C 223.892,50.8546 223.392,48.1879 223,45.5C 222.8,43.6803 221.966,42.347 220.5,41.5C 218.909,38.5691 216.909,35.9024 214.5,33.5C 216.262,33.3573 217.929,33.6906 219.5,34.5C 221.088,37.4638 222.588,40.4638 224,43.5C 226.858,40.9382 227.191,37.9382 225,34.5C 222.916,31.9975 221.083,29.3308 219.5,26.5C 217.082,27.3377 214.416,27.3377 211.5,26.5C 213.051,23.641 214.051,20.641 214.5,17.5C 210.354,17.3414 206.687,16.0081 203.5,13.5C 201.444,14.0476 199.777,15.2142 198.5,17C 197.207,17.49 195.873,17.6567 194.5,17.5C 196.474,16.0941 198.474,14.5941 200.5,13C 203.146,12.5026 205.813,12.3359 208.5,12.5 Z"/></g>
<g><path style="opacity:1" fill="#95d3d8" d="M 214.5,33.5 C 212.991,29.7479 210.157,28.0812 206,28.5C 204.167,28.6667 202.333,28.8333 200.5,29C 199.944,29.3826 199.611,29.8826 199.5,30.5C 198.833,30.8333 198.167,31.1667 197.5,31.5C 194.569,33.0908 191.902,35.0908 189.5,37.5C 187.801,37.6602 186.134,37.4935 184.5,37C 183.692,34.1562 184.026,31.3228 185.5,28.5C 186.72,29.7111 187.887,29.7111 189,28.5C 190.202,26.3225 190.702,23.9892 190.5,21.5C 191.5,19.8333 192.833,18.5 194.5,17.5C 195.873,17.6567 197.207,17.49 198.5,17C 199.777,15.2142 201.444,14.0476 203.5,13.5C 206.687,16.0081 210.354,17.3414 214.5,17.5C 214.051,20.641 213.051,23.641 211.5,26.5C 214.416,27.3377 217.082,27.3377 219.5,26.5C 221.083,29.3308 222.916,31.9975 225,34.5C 227.191,37.9382 226.858,40.9382 224,43.5C 222.588,40.4638 221.088,37.4638 219.5,34.5C 217.929,33.6906 216.262,33.3573 214.5,33.5 Z"/></g>
<g><path style="opacity:1" fill="#678f92" d="M 214.5,33.5 C 211.722,31.7369 208.722,30.4036 205.5,29.5C 203.452,29.6718 201.452,30.0051 199.5,30.5C 199.611,29.8826 199.944,29.3826 200.5,29C 202.333,28.8333 204.167,28.6667 206,28.5C 210.157,28.0812 212.991,29.7479 214.5,33.5 Z"/></g>
<g><path style="opacity:1" fill="#67898c" d="M 208.5,12.5 C 205.813,12.3359 203.146,12.5026 200.5,13C 198.474,14.5941 196.474,16.0941 194.5,17.5C 192.833,18.5 191.5,19.8333 190.5,21.5C 189.833,21.8333 189.167,22.1667 188.5,22.5C 191.812,15.8606 197.145,11.8606 204.5,10.5C 206.171,10.6682 207.504,11.3349 208.5,12.5 Z"/></g>
<g><path style="opacity:1" fill="#168186" d="M 172.5,17.5 C 170.873,19.6298 169.04,21.6298 167,23.5C 164.303,28.3379 161.47,33.0046 158.5,37.5C 158.5,37.1667 158.5,36.8333 158.5,36.5C 159.624,33.9583 160.458,31.2916 161,28.5C 163.985,25.8384 166.485,22.8384 168.5,19.5C 169.605,18.3995 170.938,17.7329 172.5,17.5 Z"/></g>
<g><path style="opacity:1" fill="#a39891" d="M 70.5,33.5 C 73.5725,35.5691 75.9059,38.2358 77.5,41.5C 74.4275,39.4309 72.0941,36.7642 70.5,33.5 Z"/></g>
<g><path style="opacity:1" fill="#211e1d" d="M 357.5,110.5 C 355.528,112.319 353.195,113.319 350.5,113.5C 350.5,111.833 350.5,110.167 350.5,108.5C 359.634,100.677 358.3,96.6767 346.5,96.5C 346.5,93.5 346.5,90.5 346.5,87.5C 347.117,87.3893 347.617,87.056 348,86.5C 348.696,83.5219 349.196,80.5219 349.5,77.5C 349.5,76.8333 349.5,76.1667 349.5,75.5C 350.825,71.5549 351.492,67.2216 351.5,62.5C 351.333,58.1667 351.167,53.8333 351,49.5C 350.79,47.9419 350.29,46.6085 349.5,45.5C 349.876,40.1059 348.876,35.1059 346.5,30.5C 345.796,28.6558 344.463,28.1558 342.5,29C 340.576,30.7498 338.909,32.5831 337.5,34.5C 336.833,34.5 336.167,34.5 335.5,34.5C 335.629,32.7839 335.962,31.1172 336.5,29.5C 338.781,27.5721 341.447,26.5721 344.5,26.5C 345.291,23.5832 345.291,20.7499 344.5,18C 342.167,17.3333 339.833,17.3333 337.5,18C 336.944,18.3826 336.611,18.8826 336.5,19.5C 336.167,19.5 335.833,19.5 335.5,19.5C 331.77,20.6917 328.104,22.1917 324.5,24C 322.365,24.8763 321.031,26.3763 320.5,28.5C 316.199,29.2327 312.865,31.3994 310.5,35C 308.833,35.3333 307.167,35.6667 305.5,36C 302.286,38.7614 298.953,41.2614 295.5,43.5C 309.119,30.2308 324.452,19.2308 341.5,10.5C 347.511,14.1601 351.344,19.4934 353,26.5C 357.094,42.2651 358.427,58.2651 357,74.5C 356.376,79.4947 355.209,84.328 353.5,89C 356.21,90.7468 359.21,91.7468 362.5,92C 366.552,94.3764 367.385,97.5431 365,101.5C 362.636,104.69 360.136,107.69 357.5,110.5 Z"/></g>
<g><path style="opacity:1" fill="#a99790" d="M 346.5,30.5 C 345.85,30.1961 345.183,29.8627 344.5,29.5C 342.427,31.5798 340.093,33.2464 337.5,34.5C 338.909,32.5831 340.576,30.7498 342.5,29C 344.463,28.1558 345.796,28.6558 346.5,30.5 Z"/></g>
<g><path style="opacity:1" fill="#341115" d="M 335.5,19.5 C 330.787,22.858 325.787,25.858 320.5,28.5C 321.031,26.3763 322.365,24.8763 324.5,24C 328.104,22.1917 331.77,20.6917 335.5,19.5 Z"/></g>
<g><path style="opacity:1" fill="#37131a" d="M 336.5,29.5 C 338.68,27.1522 340.68,24.6522 342.5,22C 342.355,21.228 342.022,20.5613 341.5,20C 339.866,19.5065 338.199,19.3398 336.5,19.5C 336.611,18.8826 336.944,18.3826 337.5,18C 339.833,17.3333 342.167,17.3333 344.5,18C 345.291,20.7499 345.291,23.5832 344.5,26.5C 341.447,26.5721 338.781,27.5721 336.5,29.5 Z"/></g>
<g><path style="opacity:1" fill="#4a6466" d="M 197.5,31.5 C 194.833,34.8333 191.833,37.8333 188.5,40.5C 188.557,39.391 188.89,38.391 189.5,37.5C 191.902,35.0908 194.569,33.0908 197.5,31.5 Z"/></g>
<g><path style="opacity:1" fill="#867572" d="M 335.5,34.5 C 336.167,34.5 336.833,34.5 337.5,34.5C 336.833,35.8333 335.833,36.8333 334.5,37.5C 334.557,36.391 334.89,35.391 335.5,34.5 Z"/></g>
<g><path style="opacity:1" fill="#7b7066" d="M 346.5,30.5 C 348.876,35.1059 349.876,40.1059 349.5,45.5C 348.691,43.9724 348.024,42.3057 347.5,40.5C 347.384,37.1401 347.051,33.8067 346.5,30.5 Z"/></g>
<g><path style="opacity:1" fill="#fae2d0" d="M 65.5,29.5 C 67.1541,30.7503 68.8207,32.0837 70.5,33.5C 72.0941,36.7642 74.4275,39.4309 77.5,41.5C 78.7573,44.4274 80.7573,46.7607 83.5,48.5C 84.0798,50.7488 85.4131,52.4154 87.5,53.5C 87.8004,61.2233 87.4671,68.8899 86.5,76.5C 81.2478,76.8178 75.9145,76.8178 70.5,76.5C 70.502,82.523 70.8354,88.523 71.5,94.5C 71.5,95.1667 71.5,95.8333 71.5,96.5C 71.1667,96.5 70.8333,96.5 70.5,96.5C 68.712,96.7852 67.0453,96.4519 65.5,95.5C 64.8938,93.2906 64.2272,91.124 63.5,89C 62.5963,83.9792 62.5963,78.8125 63.5,73.5C 63.4024,71.3807 62.5691,69.714 61,68.5C 60.213,56.4339 60.713,44.4339 62.5,32.5C 62.5,30.5 63.5,29.5 65.5,29.5 Z"/></g>
<g><path style="opacity:1" fill="#341b1c" d="M 98.5,36.5 C 90.1952,31.0103 81.8618,25.5103 73.5,20C 68.8996,18.4167 67.0663,19.9167 68,24.5C 76.1389,32.1908 83.3056,40.5242 89.5,49.5C 87.7028,48.2702 85.7028,47.6036 83.5,47.5C 81.8333,45.1667 79.8333,43.1667 77.5,41.5C 75.9059,38.2358 73.5725,35.5691 70.5,33.5C 68.8207,32.0837 67.1541,30.7503 65.5,29.5C 64.791,28.596 63.791,28.2627 62.5,28.5C 62.7496,27.0779 63.583,26.0779 65,25.5C 65.2362,23.236 65.7362,21.0693 66.5,19C 70.888,18.4228 75.2214,18.7561 79.5,20C 83.5544,22.9646 87.8877,25.4646 92.5,27.5C 93.7813,31.0759 95.7813,34.0759 98.5,36.5 Z"/></g>
<g><path style="opacity:1" fill="#243f40" d="M 209.5,37.5 C 206.555,36.5325 203.555,36.3658 200.5,37C 197.921,38.0757 196.254,39.909 195.5,42.5C 194.833,42.8333 194.167,43.1667 193.5,43.5C 193.936,41.2537 194.603,39.0871 195.5,37C 199.761,35.6374 204.095,35.3041 208.5,36C 209.056,36.3826 209.389,36.8826 209.5,37.5 Z"/></g>
<g><path style="opacity:1" fill="#fae2d0" d="M 346.5,30.5 C 347.051,33.8067 347.384,37.1401 347.5,40.5C 346.028,42.1175 345.361,44.1175 345.5,46.5C 345.798,52.8678 346.464,59.3678 347.5,66C 345.965,70.524 345.632,75.024 346.5,79.5C 341.838,80.1741 338.338,78.5074 336,74.5C 331.544,76.6277 327.044,76.461 322.5,74C 321.522,67.5898 321.189,61.0898 321.5,54.5C 321.932,53.2905 322.599,52.2905 323.5,51.5C 327.647,47.2051 331.313,42.5384 334.5,37.5C 335.833,36.8333 336.833,35.8333 337.5,34.5C 340.093,33.2464 342.427,31.5798 344.5,29.5C 345.183,29.8627 345.85,30.1961 346.5,30.5 Z"/></g>
<g><path style="opacity:1" fill="#0e7175" d="M 233.5,34.5 C 234.973,37.0169 235.64,39.8502 235.5,43C 235.494,45.0326 235.161,46.866 234.5,48.5C 234.563,43.7971 234.229,39.1304 233.5,34.5 Z"/></g>
<g><path style="opacity:1" fill="#04393c" d="M 158.5,36.5 C 158.5,36.8333 158.5,37.1667 158.5,37.5C 156.063,42.1075 155.063,47.1075 155.5,52.5C 155.278,56.7968 155.945,60.7968 157.5,64.5C 158.234,65.7079 158.567,67.0413 158.5,68.5C 158.5,68.8333 158.5,69.1667 158.5,69.5C 157.609,68.8902 156.609,68.5569 155.5,68.5C 154.612,65.9455 154.279,63.2788 154.5,60.5C 154.334,53.4921 154.5,46.4921 155,39.5C 156.039,38.2899 157.206,37.2899 158.5,36.5 Z"/></g>
<g><path style="opacity:1" fill="#93c1c6" d="M 190.5,21.5 C 190.702,23.9892 190.202,26.3225 189,28.5C 187.887,29.7111 186.72,29.7111 185.5,28.5C 184.026,31.3228 183.692,34.1562 184.5,37C 186.134,37.4935 187.801,37.6602 189.5,37.5C 188.89,38.391 188.557,39.391 188.5,40.5C 186.755,42.0326 185.755,44.0326 185.5,46.5C 185.5,47.1667 185.5,47.8333 185.5,48.5C 184.835,50.3691 184.169,52.3691 183.5,54.5C 182.817,54.1373 182.15,53.8039 181.5,53.5C 181.5,52.1667 181.5,50.8333 181.5,49.5C 181.375,43.7969 181.708,38.1302 182.5,32.5C 183.223,28.4346 185.223,25.1013 188.5,22.5C 189.167,22.1667 189.833,21.8333 190.5,21.5 Z"/></g>
<g><path style="opacity:1" fill="#9a887e" d="M 77.5,41.5 C 79.8333,43.1667 81.8333,45.1667 83.5,47.5C 83.5,47.8333 83.5,48.1667 83.5,48.5C 80.7573,46.7607 78.7573,44.4274 77.5,41.5 Z"/></g>
<g><path style="opacity:1" fill="#01adb8" d="M 158.5,68.5 C 158.567,67.0413 158.234,65.7079 157.5,64.5C 156.336,51.743 159.169,40.0764 166,29.5C 167.419,28.5399 168.919,27.7065 170.5,27C 170.167,26.6667 169.833,26.3333 169.5,26C 170.227,24.6012 170.727,23.1012 171,21.5C 172.676,20.9389 174.009,19.9389 175,18.5C 175.167,19 175.333,19.5 175.5,20C 174.637,23.0173 173.471,25.8506 172,28.5C 171.896,38.5588 171.229,48.5588 170,58.5C 168.859,60.6089 167.359,62.4422 165.5,64C 166.257,65.5122 167.257,66.8455 168.5,68C 167.206,70.087 166.039,72.2537 165,74.5C 163.405,71.85 161.238,69.85 158.5,68.5 Z"/></g>
<g><path style="opacity:1" fill="#0f676d" d="M 176.5,30.5 C 175.523,34.6037 174.857,38.7704 174.5,43C 175.512,48.8929 176.846,54.7262 178.5,60.5C 176.616,58.2307 175.283,55.564 174.5,52.5C 173.337,47.1977 173.171,41.8643 174,36.5C 174.566,34.2774 175.4,32.2774 176.5,30.5 Z"/></g>
<g><path style="opacity:1" fill="#391b1b" d="M 336.5,29.5 C 335.962,31.1172 335.629,32.7839 335.5,34.5C 334.89,35.391 334.557,36.391 334.5,37.5C 331.473,39.8605 328.806,42.5271 326.5,45.5C 326.631,44.6236 326.298,43.9569 325.5,43.5C 324.358,44.8262 323.024,45.8262 321.5,46.5C 326.135,40.5308 331.135,34.8641 336.5,29.5 Z"/></g>
<g><path style="opacity:1" fill="#6a8f93" d="M 182.5,32.5 C 181.708,38.1302 181.375,43.7969 181.5,49.5C 180.837,47.3587 180.503,45.0254 180.5,42.5C 180.315,38.8589 180.981,35.5256 182.5,32.5 Z"/></g>
<g><path style="opacity:1" fill="#668388" d="M 225.5,30.5 C 226.79,31.0577 227.623,32.0577 228,33.5C 228.675,40.5282 228.508,47.5282 227.5,54.5C 227.167,54.5 226.833,54.5 226.5,54.5C 228.157,46.3812 227.824,38.3812 225.5,30.5 Z"/></g>
<g><path style="opacity:1" fill="#557779" d="M 188.5,40.5 C 188.245,42.9674 187.245,44.9674 185.5,46.5C 185.755,44.0326 186.755,42.0326 188.5,40.5 Z"/></g>
<g><path style="opacity:1" fill="#023436" d="M 226.5,20.5 C 227.806,22.4727 229.473,24.1394 231.5,25.5C 232.461,28.4261 233.127,31.4261 233.5,34.5C 234.229,39.1304 234.563,43.7971 234.5,48.5C 234.5,48.8333 234.5,49.1667 234.5,49.5C 233.833,51.1667 233.167,52.8333 232.5,54.5C 232.666,47.825 232.5,41.1583 232,34.5C 230.337,31.4424 228.67,28.4424 227,25.5C 226.506,23.8659 226.34,22.1992 226.5,20.5 Z"/></g>
<g><path style="opacity:1" fill="#453d35" d="M 61.5,31.5 C 61.5,31.8333 61.5,32.1667 61.5,32.5C 60.552,39.1365 59.8854,45.8031 59.5,52.5C 58.5098,58.6446 58.1765,64.9779 58.5,71.5C 57.2057,59.3074 57.3723,46.9741 59,34.5C 59.3768,33.0577 60.2101,32.0577 61.5,31.5 Z"/></g>
<g><path style="opacity:1" fill="#324749" d="M 220.5,41.5 C 221.966,42.347 222.8,43.6803 223,45.5C 223.392,48.1879 223.892,50.8546 224.5,53.5C 224.861,55.418 225.528,55.7514 226.5,54.5C 226.833,54.5 227.167,54.5 227.5,54.5C 227.166,57.2748 225.833,57.9415 223.5,56.5C 222.392,51.5152 221.392,46.5152 220.5,41.5 Z"/></g>
<g><path style="opacity:1" fill="#8a7971" d="M 334.5,37.5 C 331.313,42.5384 327.647,47.2051 323.5,51.5C 323.975,49.2163 324.975,47.2163 326.5,45.5C 328.806,42.5271 331.473,39.8605 334.5,37.5 Z"/></g>
<g><path style="opacity:1" fill="#2d1617" d="M 98.5,36.5 C 104.576,36.8595 108.909,39.6928 111.5,45C 114.06,45.3838 116.394,46.2171 118.5,47.5C 119.06,49.8008 119.56,52.1341 120,54.5C 121.444,56.1554 123.278,56.822 125.5,56.5C 125.5,58.5 125.5,60.5 125.5,62.5C 121.365,58.1941 117.365,53.6941 113.5,49C 108.509,44.8357 103.509,40.669 98.5,36.5 Z"/></g>
<g><path style="opacity:1" fill="#6ec5cb" d="M 209.5,37.5 C 210.5,39.1667 211.833,40.5 213.5,41.5C 215.027,44.7076 216.027,48.2076 216.5,52C 216.519,55.6646 215.852,59.1646 214.5,62.5C 213.942,63.7899 212.942,64.6232 211.5,65C 205.59,66.0083 199.923,65.5083 194.5,63.5C 194.267,61.9382 193.6,60.6049 192.5,59.5C 192.124,53.5075 193.124,47.8408 195.5,42.5C 196.254,39.909 197.921,38.0757 200.5,37C 203.555,36.3658 206.555,36.5325 209.5,37.5 Z"/></g>
<g><path style="opacity:1" fill="#93887e" d="M 83.5,48.5 C 85.5869,49.5846 86.9202,51.2512 87.5,53.5C 85.4131,52.4154 84.0798,50.7488 83.5,48.5 Z"/></g>
<g><path style="opacity:1" fill="#102327" d="M 168.5,19.5 C 166.485,22.8384 163.985,25.8384 161,28.5C 160.458,31.2916 159.624,33.9583 158.5,36.5C 157.206,37.2899 156.039,38.2899 155,39.5C 154.5,46.4921 154.334,53.4921 154.5,60.5C 154.167,60.5 153.833,60.5 153.5,60.5C 153.169,52.8045 153.503,45.1378 154.5,37.5C 157.462,35.023 158.129,32.023 156.5,28.5C 156.557,27.391 156.89,26.391 157.5,25.5C 161.725,24.2181 165.392,22.2181 168.5,19.5 Z"/></g>
<g><path style="opacity:1" fill="#61969a" d="M 195.5,42.5 C 193.124,47.8408 192.124,53.5075 192.5,59.5C 191.883,59.3893 191.383,59.056 191,58.5C 190.306,54.446 190.473,50.446 191.5,46.5C 192.401,45.7095 193.068,44.7095 193.5,43.5C 194.167,43.1667 194.833,42.8333 195.5,42.5 Z"/></g>
<g><path style="opacity:1" fill="#201b1b" d="M 156.5,28.5 C 158.129,32.023 157.462,35.023 154.5,37.5C 153.503,45.1378 153.169,52.8045 153.5,60.5C 152.454,58.46 150.787,57.1267 148.5,56.5C 146.181,57.0639 143.847,57.5639 141.5,58C 140.944,58.3826 140.611,58.8826 140.5,59.5C 139.341,61.2503 137.674,62.2503 135.5,62.5C 133.629,62.8588 132.129,63.8588 131,65.5C 129.736,63.393 127.903,62.393 125.5,62.5C 125.5,60.5 125.5,58.5 125.5,56.5C 123.278,56.822 121.444,56.1554 120,54.5C 119.56,52.1341 119.06,49.8008 118.5,47.5C 122.642,50.6068 125.975,54.4402 128.5,59C 129.833,59.6667 131.167,59.6667 132.5,59C 135.243,56.9617 138.243,55.4617 141.5,54.5C 144.167,54.5 146.833,54.5 149.5,54.5C 149.649,46.0273 151.316,37.8606 154.5,30C 154.836,28.9701 155.503,28.4701 156.5,28.5 Z"/></g>
<g><path style="opacity:1" fill="#598f92" d="M 213.5,41.5 C 215.669,43.3403 217.002,45.6737 217.5,48.5C 217.665,51.8499 217.498,55.1832 217,58.5C 216.392,60.0664 215.558,61.3998 214.5,62.5C 215.852,59.1646 216.519,55.6646 216.5,52C 216.027,48.2076 215.027,44.7076 213.5,41.5 Z"/></g>
<g><path style="opacity:1" fill="#4e5f5f" d="M 185.5,48.5 C 185.5,50.5 185.5,52.5 185.5,54.5C 185.5,55.5 185.5,56.5 185.5,57.5C 184.5,57.5 183.5,57.5 182.5,57.5C 182.167,56.1667 181.833,54.8333 181.5,53.5C 182.15,53.8039 182.817,54.1373 183.5,54.5C 184.169,52.3691 184.835,50.3691 185.5,48.5 Z"/></g>
<g><path style="opacity:1" fill="#411516" d="M 321.5,46.5 C 320.235,49.463 318.902,52.463 317.5,55.5C 316.378,56.6302 315.044,57.2969 313.5,57.5C 315.799,53.5388 318.466,49.8721 321.5,46.5 Z"/></g>
<g><path style="opacity:1" fill="#301416" d="M 320.5,28.5 C 314.657,33.5074 308.657,38.3408 302.5,43C 294.218,50.4412 286.885,58.6078 280.5,67.5C 279.041,67.5674 277.708,67.2341 276.5,66.5C 273.681,63.925 270.681,61.5917 267.5,59.5C 270.928,59.5465 273.928,60.7132 276.5,63C 278.167,63.6667 279.833,63.6667 281.5,63C 283.492,60.0106 285.159,56.8439 286.5,53.5C 289.285,52.9415 291.618,51.6082 293.5,49.5C 294.711,48.2798 294.711,47.1131 293.5,46C 294.381,45.2917 295.047,44.4584 295.5,43.5C 298.953,41.2614 302.286,38.7614 305.5,36C 307.167,35.6667 308.833,35.3333 310.5,35C 312.865,31.3994 316.199,29.2327 320.5,28.5 Z"/></g>
<g><path style="opacity:1" fill="#3a1216" d="M 153.5,60.5 C 153.833,60.5 154.167,60.5 154.5,60.5C 154.279,63.2788 154.612,65.9455 155.5,68.5C 156.038,70.1172 156.371,71.7839 156.5,73.5C 153.94,69.1807 151.94,64.5141 150.5,59.5C 147.185,58.4473 143.852,58.4473 140.5,59.5C 140.611,58.8826 140.944,58.3826 141.5,58C 143.847,57.5639 146.181,57.0639 148.5,56.5C 150.787,57.1267 152.454,58.46 153.5,60.5 Z"/></g>
<g><path style="opacity:1" fill="#311418" d="M 258.5,56.5 C 261.917,56.023 264.584,57.023 266.5,59.5C 263.827,58.2974 261.16,58.2974 258.5,59.5C 256.732,65.4881 254.399,71.1548 251.5,76.5C 251.5,74.1667 251.5,71.8333 251.5,69.5C 253.267,67.2084 254.267,64.5418 254.5,61.5C 255.593,59.6508 256.926,57.9842 258.5,56.5 Z"/></g>
<g><path style="opacity:1" fill="#2a1d1b" d="M 326.5,45.5 C 324.975,47.2163 323.975,49.2163 323.5,51.5C 322.599,52.2905 321.932,53.2905 321.5,54.5C 319.49,62.3512 319.156,70.3512 320.5,78.5C 324.727,80.2805 329.394,81.1138 334.5,81C 335.14,85.2679 335.807,89.4345 336.5,93.5C 336.989,94.9952 337.655,96.3285 338.5,97.5C 338.833,99.8333 340.167,101.167 342.5,101.5C 345.734,102.089 347.067,104.089 346.5,107.5C 346.167,107.5 345.833,107.5 345.5,107.5C 345.631,106.624 345.298,105.957 344.5,105.5C 341.247,107.187 339.247,106.187 338.5,102.5C 337.583,101.873 336.583,101.539 335.5,101.5C 333.498,95.5403 331.498,89.5403 329.5,83.5C 325.769,82.8045 321.935,82.1378 318,81.5C 317.015,79.6341 316.515,77.6341 316.5,75.5C 317.6,72.5356 318.1,69.5356 318,66.5C 316.989,65.6634 315.822,65.33 314.5,65.5C 313.167,65.5 311.833,65.5 310.5,65.5C 311.448,62.8598 312.448,60.1931 313.5,57.5C 315.044,57.2969 316.378,56.6302 317.5,55.5C 318.902,52.463 320.235,49.463 321.5,46.5C 323.024,45.8262 324.358,44.8262 325.5,43.5C 326.298,43.9569 326.631,44.6236 326.5,45.5 Z"/></g>
<g><path style="opacity:1" fill="#574d45" d="M 349.5,45.5 C 350.29,46.6085 350.79,47.9419 351,49.5C 351.167,53.8333 351.333,58.1667 351.5,62.5C 351.492,67.2216 350.825,71.5549 349.5,75.5C 350.687,65.5122 350.687,55.5122 349.5,45.5 Z"/></g>
<g><path style="opacity:1" fill="#14393e" d="M 251.5,36.5 C 253.067,37.6808 253.901,39.3474 254,41.5C 254.5,48.1583 254.666,54.825 254.5,61.5C 254.267,64.5418 253.267,67.2084 251.5,69.5C 251.5,68.1667 251.5,66.8333 251.5,65.5C 254.11,55.9637 254.11,46.297 251.5,36.5 Z"/></g>
<g><path style="opacity:1" fill="#ae9f96" d="M 59.5,52.5 C 59.3786,60.8578 59.7119,69.1912 60.5,77.5C 59.8333,75.8333 59.1667,74.1667 58.5,72.5C 58.5,72.1667 58.5,71.8333 58.5,71.5C 58.1765,64.9779 58.5098,58.6446 59.5,52.5 Z"/></g>
<g><path style="opacity:1" fill="#381316" d="M 90.5,50.5 C 94.0383,54.416 97.0383,58.7494 99.5,63.5C 98.8166,65.1765 97.4832,65.8432 95.5,65.5C 95.9175,64.7784 96.5842,64.2784 97.5,64C 95.0284,59.5564 92.6951,55.0564 90.5,50.5 Z"/></g>
<g><path style="opacity:1" fill="#1b949c" d="M 234.5,49.5 C 234.635,55.63 233.801,61.63 232,67.5C 231.667,67.1667 231.333,66.8333 231,66.5C 228.54,67.9578 226.373,69.7911 224.5,72C 220.385,73.2235 216.718,75.2235 213.5,78C 206.414,78.6595 199.414,78.1595 192.5,76.5C 192.5,75.8333 192.5,75.1667 192.5,74.5C 200.25,77.1076 207.916,77.1076 215.5,74.5C 215.5,74.1667 215.5,73.8333 215.5,73.5C 217.833,72.8333 220.167,72.1667 222.5,71.5C 225.973,69.3633 228.306,66.3633 229.5,62.5C 231.606,60.2812 232.606,57.6145 232.5,54.5C 233.167,52.8333 233.833,51.1667 234.5,49.5 Z"/></g>
<g><path style="opacity:1" fill="#345559" d="M 217.5,48.5 C 218.473,50.9479 218.806,53.6146 218.5,56.5C 218.655,61.0226 216.655,64.1893 212.5,66C 207.167,66.6667 201.833,66.6667 196.5,66C 195.619,65.2917 194.953,64.4584 194.5,63.5C 199.923,65.5083 205.59,66.0083 211.5,65C 212.942,64.6232 213.942,63.7899 214.5,62.5C 215.558,61.3998 216.392,60.0664 217,58.5C 217.498,55.1832 217.665,51.8499 217.5,48.5 Z"/></g>
<g><path style="opacity:1" fill="#61524f" d="M 88.5,54.5 C 90.4026,61.5939 90.9026,68.9272 90,76.5C 89.7216,77.4158 89.2216,78.0825 88.5,78.5C 88.5,70.5 88.5,62.5 88.5,54.5 Z"/></g>
<g><path style="opacity:1" fill="#0ba7ae" d="M 191.5,10.5 C 189.833,11.5 188.5,12.8333 187.5,14.5C 183.783,15.9198 181.45,18.5865 180.5,22.5C 178.308,24.7047 176.974,27.3714 176.5,30.5C 175.4,32.2774 174.566,34.2774 174,36.5C 173.171,41.8643 173.337,47.1977 174.5,52.5C 175.283,55.564 176.616,58.2307 178.5,60.5C 178.5,60.8333 178.5,61.1667 178.5,61.5C 178.562,65.5684 180.562,68.235 184.5,69.5C 186.658,71.9929 189.324,73.6595 192.5,74.5C 192.5,75.1667 192.5,75.8333 192.5,76.5C 189.402,75.7841 186.736,74.2841 184.5,72C 182.833,71.6667 181.167,71.3333 179.5,71C 178.242,66.8913 176.408,63.058 174,59.5C 172.798,61.6775 172.298,64.0108 172.5,66.5C 171.5,66.5 170.5,66.5 169.5,66.5C 171.496,69.8409 170.663,72.1743 167,73.5C 166.064,76.3521 166.73,78.6855 169,80.5C 169.605,78.5188 170.605,78.1854 172,79.5C 174.184,77.1291 176.35,77.2958 178.5,80C 177.551,80.6172 176.718,80.4506 176,79.5C 174.353,81.1862 172.519,82.5196 170.5,83.5C 169.151,83.1543 167.817,82.821 166.5,82.5C 164.226,78.228 161.559,74.228 158.5,70.5C 158.5,70.1667 158.5,69.8333 158.5,69.5C 158.5,69.1667 158.5,68.8333 158.5,68.5C 161.238,69.85 163.405,71.85 165,74.5C 166.039,72.2537 167.206,70.087 168.5,68C 167.257,66.8455 166.257,65.5122 165.5,64C 167.359,62.4422 168.859,60.6089 170,58.5C 171.229,48.5588 171.896,38.5588 172,28.5C 173.471,25.8506 174.637,23.0173 175.5,20C 175.333,19.5 175.167,19 175,18.5C 174.009,19.9389 172.676,20.9389 171,21.5C 170.727,23.1012 170.227,24.6012 169.5,26C 169.833,26.3333 170.167,26.6667 170.5,27C 168.919,27.7065 167.419,28.5399 166,29.5C 159.169,40.0764 156.336,51.743 157.5,64.5C 155.945,60.7968 155.278,56.7968 155.5,52.5C 155.063,47.1075 156.063,42.1075 158.5,37.5C 161.47,33.0046 164.303,28.3379 167,23.5C 169.04,21.6298 170.873,19.6298 172.5,17.5C 175.833,14.8769 179.5,12.7102 183.5,11C 186.265,9.52361 188.932,9.35694 191.5,10.5 Z"/></g>
<g><path style="opacity:1" fill="#4d0b18" d="M 99.5,63.5 C 102.353,67.2077 104.686,71.2077 106.5,75.5C 104.179,72.371 101.512,69.5377 98.5,67C 97.0715,66.4209 95.7382,66.5876 94.5,67.5C 94.3284,66.5084 94.6618,65.8417 95.5,65.5C 97.4832,65.8432 98.8166,65.1765 99.5,63.5 Z"/></g>
<g><path style="opacity:1" fill="#570b15" d="M 276.5,66.5 C 277.708,67.2341 279.041,67.5674 280.5,67.5C 276.542,72.8596 273.042,78.5262 270,84.5C 269.516,82.0871 269.85,79.7538 271,77.5C 274.389,74.611 276.222,70.9444 276.5,66.5 Z"/></g>
<g><path style="opacity:1" fill="#460a12" d="M 94.5,67.5 C 93.8868,71.937 93.2202,76.2703 92.5,80.5C 91.9031,75.706 92.5698,71.3727 94.5,67.5 Z"/></g>
<g><path style="opacity:1" fill="#3d1117" d="M 125.5,62.5 C 127.903,62.393 129.736,63.393 131,65.5C 132.129,63.8588 133.629,62.8588 135.5,62.5C 133.016,64.5452 132.016,67.2118 132.5,70.5C 131.833,70.5 131.167,70.5 130.5,70.5C 128.322,68.1416 126.655,65.4749 125.5,62.5 Z"/></g>
<g><path style="opacity:1" fill="#151c1c" d="M 191.5,46.5 C 190.473,50.446 190.306,54.446 191,58.5C 191.383,59.056 191.883,59.3893 192.5,59.5C 193.6,60.6049 194.267,61.9382 194.5,63.5C 194.953,64.4584 195.619,65.2917 196.5,66C 201.833,66.6667 207.167,66.6667 212.5,66C 216.655,64.1893 218.655,61.0226 218.5,56.5C 218.992,60.4878 221.325,62.6545 225.5,63C 223.246,64.3767 221.08,65.8767 219,67.5C 218.373,69.9273 217.206,71.9273 215.5,73.5C 215.5,73.8333 215.5,74.1667 215.5,74.5C 208.825,74.6663 202.158,74.4996 195.5,74C 193.234,73.0676 191.234,71.7342 189.5,70C 187.866,69.5065 186.199,69.3398 184.5,69.5C 184.267,67.9382 183.6,66.6049 182.5,65.5C 182.5,62.8333 182.5,60.1667 182.5,57.5C 183.5,57.5 184.5,57.5 185.5,57.5C 185.5,56.5 185.5,55.5 185.5,54.5C 186.485,51.9429 187.485,49.2763 188.5,46.5C 189.687,45.3473 190.687,45.3473 191.5,46.5 Z"/></g>
<g><path style="opacity:1" fill="#02acb7" d="M 234.5,16.5 C 237.093,17.7536 239.427,19.4202 241.5,21.5C 241.343,22.8734 241.51,24.2068 242,25.5C 245.63,30.112 248.63,35.112 251,40.5C 251.5,48.8267 251.666,57.16 251.5,65.5C 251.5,66.8333 251.5,68.1667 251.5,69.5C 248.998,72.4985 246.998,75.8318 245.5,79.5C 241.187,83.4781 236.854,87.4781 232.5,91.5C 228.273,94.2749 223.606,95.9416 218.5,96.5C 210.493,96.6664 202.493,96.4997 194.5,96C 186.128,93.5509 178.128,90.3843 170.5,86.5C 168.833,85.5 167.5,84.1667 166.5,82.5C 167.817,82.821 169.151,83.1543 170.5,83.5C 172.519,82.5196 174.353,81.1862 176,79.5C 176.718,80.4506 177.551,80.6172 178.5,80C 176.35,77.2958 174.184,77.1291 172,79.5C 170.605,78.1854 169.605,78.5188 169,80.5C 166.73,78.6855 166.064,76.3521 167,73.5C 170.663,72.1743 171.496,69.8409 169.5,66.5C 170.5,66.5 171.5,66.5 172.5,66.5C 172.298,64.0108 172.798,61.6775 174,59.5C 176.408,63.058 178.242,66.8913 179.5,71C 181.167,71.3333 182.833,71.6667 184.5,72C 186.736,74.2841 189.402,75.7841 192.5,76.5C 199.414,78.1595 206.414,78.6595 213.5,78C 216.718,75.2235 220.385,73.2235 224.5,72C 226.373,69.7911 228.54,67.9578 231,66.5C 231.333,66.8333 231.667,67.1667 232,67.5C 233.801,61.63 234.635,55.63 234.5,49.5C 234.5,49.1667 234.5,48.8333 234.5,48.5C 235.161,46.866 235.494,45.0326 235.5,43C 235.64,39.8502 234.973,37.0169 233.5,34.5C 233.127,31.4261 232.461,28.4261 231.5,25.5C 230.941,22.1566 229.608,19.1566 227.5,16.5C 227.833,15.8333 228.167,15.1667 228.5,14.5C 230.45,15.3721 232.45,16.0388 234.5,16.5 Z"/></g>
<g><path style="opacity:1" fill="#116168" d="M 229.5,62.5 C 228.306,66.3633 225.973,69.3633 222.5,71.5C 224.458,68.2085 226.791,65.2085 229.5,62.5 Z"/></g>
<g><path style="opacity:1" fill="#10797b" d="M 178.5,61.5 C 180.194,62.5274 181.527,63.8608 182.5,65.5C 183.6,66.6049 184.267,67.9382 184.5,69.5C 180.562,68.235 178.562,65.5684 178.5,61.5 Z"/></g>
<g><path style="opacity:1" fill="#500a16" d="M 130.5,70.5 C 131.167,70.5 131.833,70.5 132.5,70.5C 135.323,74.1362 137.656,78.1362 139.5,82.5C 139.631,83.2389 139.464,83.9056 139,84.5C 138.292,83.6195 137.458,82.9528 136.5,82.5C 135.07,78.2093 133.07,74.2093 130.5,70.5 Z"/></g>
<g><path style="opacity:1" fill="#0f2e35" d="M 251.5,69.5 C 251.5,71.8333 251.5,74.1667 251.5,76.5C 250.5,76.5 249.5,76.5 248.5,76.5C 246.698,82.3108 243.031,86.6441 237.5,89.5C 240.547,86.4552 243.213,83.1219 245.5,79.5C 246.998,75.8318 248.998,72.4985 251.5,69.5 Z"/></g>
<g><path style="opacity:1" fill="#381216" d="M 156.5,73.5 C 158.346,75.0301 159.346,77.0301 159.5,79.5C 157.654,77.9699 156.654,75.9699 156.5,73.5 Z"/></g>
<g><path style="opacity:1" fill="#013037" d="M 184.5,69.5 C 186.199,69.3398 187.866,69.5065 189.5,70C 191.234,71.7342 193.234,73.0676 195.5,74C 202.158,74.4996 208.825,74.6663 215.5,74.5C 207.916,77.1076 200.25,77.1076 192.5,74.5C 189.324,73.6595 186.658,71.9929 184.5,69.5 Z"/></g>
<g><path style="opacity:1" fill="#341215" d="M 314.5,65.5 C 315.822,65.33 316.989,65.6634 318,66.5C 318.1,69.5356 317.6,72.5356 316.5,75.5C 316.515,77.6341 317.015,79.6341 318,81.5C 321.935,82.1378 325.769,82.8045 329.5,83.5C 325.239,84.0508 321.072,84.0508 317,83.5C 315.932,78.0942 315.099,72.7608 314.5,67.5C 314.5,66.8333 314.5,66.1667 314.5,65.5 Z"/></g>
<g><path style="opacity:1" fill="#d7c6bb" d="M 87.5,53.5 C 88.1667,53.5 88.5,53.8333 88.5,54.5C 88.5,62.5 88.5,70.5 88.5,78.5C 83.1563,78.334 77.8229,78.5006 72.5,79C 71.8542,84.0833 71.8542,89.25 72.5,94.5C 72.1667,94.5 71.8333,94.5 71.5,94.5C 70.8354,88.523 70.502,82.523 70.5,76.5C 75.9145,76.8178 81.2478,76.8178 86.5,76.5C 87.4671,68.8899 87.8004,61.2233 87.5,53.5 Z"/></g>
<g><path style="opacity:1" fill="#560c17" d="M 313.5,57.5 C 312.448,60.1931 311.448,62.8598 310.5,65.5C 311.833,65.5 313.167,65.5 314.5,65.5C 314.5,66.1667 314.5,66.8333 314.5,67.5C 312.396,67.2011 310.396,67.5344 308.5,68.5C 304.158,75.1726 299.825,81.8392 295.5,88.5C 294.604,89.5063 293.938,89.5063 293.5,88.5C 299.368,77.6357 306.035,67.3024 313.5,57.5 Z"/></g>
<g><path style="opacity:1" fill="#131f21" d="M 155.5,68.5 C 156.609,68.5569 157.609,68.8902 158.5,69.5C 158.5,69.8333 158.5,70.1667 158.5,70.5C 159.403,74.8929 161.07,78.8929 163.5,82.5C 162.395,81.3995 161.062,80.7329 159.5,80.5C 159.5,80.1667 159.5,79.8333 159.5,79.5C 159.346,77.0301 158.346,75.0301 156.5,73.5C 156.371,71.7839 156.038,70.1172 155.5,68.5 Z"/></g>
<g><path style="opacity:1" fill="#514943" d="M 320.5,78.5 C 325.5,78.5 330.5,78.5 335.5,78.5C 336.897,79.8194 337.563,81.4861 337.5,83.5C 336.79,86.7992 336.457,90.1326 336.5,93.5C 335.807,89.4345 335.14,85.2679 334.5,81C 329.394,81.1138 324.727,80.2805 320.5,78.5 Z"/></g>
<g><path style="opacity:1" fill="#ecd6c9" d="M 347.5,40.5 C 348.024,42.3057 348.691,43.9724 349.5,45.5C 350.687,55.5122 350.687,65.5122 349.5,75.5C 349.5,76.1667 349.5,76.8333 349.5,77.5C 348.883,77.6107 348.383,77.944 348,78.5C 347.304,81.4781 346.804,84.4781 346.5,87.5C 344.492,90.2363 344.158,93.2363 345.5,96.5C 348.788,97.4453 352.121,98.112 355.5,98.5C 354.895,103.401 352.228,106.401 347.5,107.5C 348.575,103.062 346.908,101.062 342.5,101.5C 340.167,101.167 338.833,99.8333 338.5,97.5C 338.666,91.4908 338.499,85.4908 338,79.5C 337.329,78.7476 336.496,78.4142 335.5,78.5C 330.5,78.5 325.5,78.5 320.5,78.5C 319.156,70.3512 319.49,62.3512 321.5,54.5C 321.189,61.0898 321.522,67.5898 322.5,74C 327.044,76.461 331.544,76.6277 336,74.5C 338.338,78.5074 341.838,80.1741 346.5,79.5C 345.632,75.024 345.965,70.524 347.5,66C 346.464,59.3678 345.798,52.8678 345.5,46.5C 345.361,44.1175 346.028,42.1175 347.5,40.5 Z"/></g>
<g><path style="opacity:1" fill="#3b342c" d="M 58.5,72.5 C 59.1667,74.1667 59.8333,75.8333 60.5,77.5C 61.3855,82.6659 62.3855,87.8325 63.5,93C 63.6134,94.6991 62.9468,95.8658 61.5,96.5C 60.8333,96.5 60.1667,96.5 59.5,96.5C 62.4863,91.2924 61.8196,86.6257 57.5,82.5C 56.8526,85.4541 56.686,88.4541 57,91.5C 53.7568,93.2625 50.2568,93.9292 46.5,93.5C 49.5208,92.3198 52.6874,91.3198 56,90.5C 55.6587,86.7951 54.8254,83.1284 53.5,79.5C 55.0418,80.3007 56.7085,80.634 58.5,80.5C 58.5,77.8333 58.5,75.1667 58.5,72.5 Z"/></g>
<g><path style="opacity:1" fill="#6c5f58" d="M 88.5,78.5 C 87.3064,79.7773 85.6397,80.4439 83.5,80.5C 80.1509,79.9919 76.8175,79.8253 73.5,80C 72.193,81.9435 72.193,83.7768 73.5,85.5C 73.5,86.8333 73.5,88.1667 73.5,89.5C 73.7845,91.4147 73.4511,93.0813 72.5,94.5C 71.8542,89.25 71.8542,84.0833 72.5,79C 77.8229,78.5006 83.1563,78.334 88.5,78.5 Z"/></g>
<g><path style="opacity:1" fill="#231a19" d="M 83.5,48.5 C 83.5,48.1667 83.5,47.8333 83.5,47.5C 85.7028,47.6036 87.7028,48.2702 89.5,49.5C 90.1667,49.5 90.5,49.8333 90.5,50.5C 92.6951,55.0564 95.0284,59.5564 97.5,64C 96.5842,64.2784 95.9175,64.7784 95.5,65.5C 94.6618,65.8417 94.3284,66.5084 94.5,67.5C 92.5698,71.3727 91.9031,75.706 92.5,80.5C 92.6716,81.4916 92.3382,82.1583 91.5,82.5C 86.1871,81.6381 80.8538,81.4715 75.5,82C 74.1772,82.8159 73.5106,83.9826 73.5,85.5C 72.193,83.7768 72.193,81.9435 73.5,80C 76.8175,79.8253 80.1509,79.9919 83.5,80.5C 85.6397,80.4439 87.3064,79.7773 88.5,78.5C 89.2216,78.0825 89.7216,77.4158 90,76.5C 90.9026,68.9272 90.4026,61.5939 88.5,54.5C 88.5,53.8333 88.1667,53.5 87.5,53.5C 86.9202,51.2512 85.5869,49.5846 83.5,48.5 Z"/></g>
<g><path style="opacity:1" fill="#08474c" d="M 158.5,70.5 C 161.559,74.228 164.226,78.228 166.5,82.5C 167.5,84.1667 168.833,85.5 170.5,86.5C 170.5,86.8333 170.5,87.1667 170.5,87.5C 169.833,87.5 169.167,87.5 168.5,87.5C 167.167,85.5 165.5,83.8333 163.5,82.5C 161.07,78.8929 159.403,74.8929 158.5,70.5 Z"/></g>
<g><path style="opacity:1" fill="#0f5a61" d="M 245.5,79.5 C 243.213,83.1219 240.547,86.4552 237.5,89.5C 236.833,89.5 236.5,89.8333 236.5,90.5C 235.167,90.8333 233.833,91.1667 232.5,91.5C 236.854,87.4781 241.187,83.4781 245.5,79.5 Z"/></g>
<g><path style="opacity:1" fill="#500a16" d="M 106.5,75.5 C 109.852,78.6953 112.685,82.362 115,86.5C 115.749,87.635 115.583,88.635 114.5,89.5C 111.304,85.1041 108.637,80.4375 106.5,75.5 Z"/></g>
<g><path style="opacity:1" fill="#b31734" d="M 136.5,82.5 C 137.458,82.9528 138.292,83.6195 139,84.5C 139.464,83.9056 139.631,83.2389 139.5,82.5C 140.404,83.209 140.737,84.209 140.5,85.5C 138.027,85.9118 136.694,84.9118 136.5,82.5 Z"/></g>
<g><path style="opacity:1" fill="#35131b" d="M 251.5,76.5 C 248.273,83.7272 243.273,89.3939 236.5,93.5C 236.5,92.5 236.5,91.5 236.5,90.5C 236.5,89.8333 236.833,89.5 237.5,89.5C 243.031,86.6441 246.698,82.3108 248.5,76.5C 249.5,76.5 250.5,76.5 251.5,76.5 Z"/></g>
<g><path style="opacity:1" fill="#786961" d="M 349.5,77.5 C 349.196,80.5219 348.696,83.5219 348,86.5C 347.617,87.056 347.117,87.3893 346.5,87.5C 346.804,84.4781 347.304,81.4781 348,78.5C 348.383,77.944 348.883,77.6107 349.5,77.5 Z"/></g>
<g><path style="opacity:1" fill="#2f1313" d="M 91.5,82.5 C 91.1344,83.6946 90.301,84.3613 89,84.5C 85.13,82.9591 81.4633,83.2924 78,85.5C 77.2417,90.4032 76.075,95.0699 74.5,99.5C 74.8128,95.9581 74.4794,92.6248 73.5,89.5C 73.5,88.1667 73.5,86.8333 73.5,85.5C 73.5106,83.9826 74.1772,82.8159 75.5,82C 80.8538,81.4715 86.1871,81.6381 91.5,82.5 Z"/></g>
<g><path style="opacity:1" fill="#cfb8af" d="M 335.5,78.5 C 336.496,78.4142 337.329,78.7476 338,79.5C 338.499,85.4908 338.666,91.4908 338.5,97.5C 337.655,96.3285 336.989,94.9952 336.5,93.5C 336.457,90.1326 336.79,86.7992 337.5,83.5C 337.563,81.4861 336.897,79.8194 335.5,78.5 Z"/></g>
<g><path style="opacity:1" fill="#1598a0" d="M 170.5,87.5 C 170.5,87.1667 170.5,86.8333 170.5,86.5C 178.128,90.3843 186.128,93.5509 194.5,96C 202.493,96.4997 210.493,96.6664 218.5,96.5C 214.217,97.8266 209.551,98.4933 204.5,98.5C 191.389,99.8461 180.056,96.1794 170.5,87.5 Z"/></g>
<g><path style="opacity:1" fill="#26221f" d="M 59.5,96.5 C 57.4086,96.3184 55.4086,96.6518 53.5,97.5C 52.218,98.9584 52.218,100.292 53.5,101.5C 54.7847,103.452 56.4514,105.118 58.5,106.5C 58.427,108.027 59.0937,109.027 60.5,109.5C 60.5,109.833 60.5,110.167 60.5,110.5C 58.9519,110.821 58.2852,111.821 58.5,113.5C 56.8561,113.286 55.3561,113.62 54,114.5C 53.5357,113.906 53.369,113.239 53.5,112.5C 49.7722,108.262 46.6055,103.595 44,98.5C 42.9231,95.7383 43.7564,94.0717 46.5,93.5C 50.2568,93.9292 53.7568,93.2625 57,91.5C 56.686,88.4541 56.8526,85.4541 57.5,82.5C 61.8196,86.6257 62.4863,91.2924 59.5,96.5 Z"/></g>
<g><path style="opacity:1" fill="#e6d3c6" d="M 61.5,32.5 C 61.8333,32.5 62.1667,32.5 62.5,32.5C 60.713,44.4339 60.213,56.4339 61,68.5C 62.5691,69.714 63.4024,71.3807 63.5,73.5C 62.5963,78.8125 62.5963,83.9792 63.5,89C 64.2272,91.124 64.8938,93.2906 65.5,95.5C 67.0453,96.4519 68.712,96.7852 70.5,96.5C 69.8645,98.7946 68.5311,100.461 66.5,101.5C 65.8333,101.5 65.1667,101.5 64.5,101.5C 61.8652,102.539 59.8652,104.206 58.5,106.5C 56.4514,105.118 54.7847,103.452 53.5,101.5C 53.5,100.5 53.5,99.5 53.5,98.5C 56.3725,98.1977 59.0392,97.531 61.5,96.5C 62.9468,95.8658 63.6134,94.6991 63.5,93C 62.3855,87.8325 61.3855,82.6659 60.5,77.5C 59.7119,69.1912 59.3786,60.8578 59.5,52.5C 59.8854,45.8031 60.552,39.1365 61.5,32.5 Z"/></g>
<g><path style="opacity:1" fill="#83736c" d="M 59.5,96.5 C 60.1667,96.5 60.8333,96.5 61.5,96.5C 59.0392,97.531 56.3725,98.1977 53.5,98.5C 53.5,99.5 53.5,100.5 53.5,101.5C 52.218,100.292 52.218,98.9584 53.5,97.5C 55.4086,96.6518 57.4086,96.3184 59.5,96.5 Z"/></g>
<g><path style="opacity:1" fill="#0e3035" d="M 168.5,87.5 C 169.167,87.5 169.833,87.5 170.5,87.5C 180.056,96.1794 191.389,99.8461 204.5,98.5C 209.551,98.4933 214.217,97.8266 218.5,96.5C 223.606,95.9416 228.273,94.2749 232.5,91.5C 233.833,91.1667 235.167,90.8333 236.5,90.5C 236.5,91.5 236.5,92.5 236.5,93.5C 233.753,94.9657 230.753,95.7991 227.5,96C 227.043,96.414 226.709,96.914 226.5,97.5C 221.802,98.5254 217.136,99.5254 212.5,100.5C 206.5,100.5 200.5,100.5 194.5,100.5C 188.118,100.072 182.118,98.4054 176.5,95.5C 174.118,92.4517 171.452,89.7851 168.5,87.5 Z"/></g>
<g><path style="opacity:1" fill="#877e78" d="M 70.5,96.5 C 70.8333,96.5 71.1667,96.5 71.5,96.5C 71.3683,99.7967 69.7016,101.463 66.5,101.5C 68.5311,100.461 69.8645,98.7946 70.5,96.5 Z"/></g>
<g><path style="opacity:1" fill="#341419" d="M 159.5,80.5 C 161.062,80.7329 162.395,81.3995 163.5,82.5C 165.5,83.8333 167.167,85.5 168.5,87.5C 171.452,89.7851 174.118,92.4517 176.5,95.5C 182.118,98.4054 188.118,100.072 194.5,100.5C 195.234,101.708 195.567,103.041 195.5,104.5C 194.833,104.167 194.167,103.833 193.5,103.5C 178.929,100.592 167.596,92.9252 159.5,80.5 Z"/></g>
<g><path style="opacity:1" fill="#36302c" d="M 194.5,100.5 C 200.5,100.5 206.5,100.5 212.5,100.5C 211.517,115.422 211.184,130.422 211.5,145.5C 211.167,145.5 210.833,145.5 210.5,145.5C 210.5,132.167 210.5,118.833 210.5,105.5C 206.5,105.5 202.5,105.5 198.5,105.5C 198.5,115.167 198.5,124.833 198.5,134.5C 198.813,138.042 198.479,141.375 197.5,144.5C 196.512,149.64 196.179,154.974 196.5,160.5C 196.471,142.503 196.138,124.503 195.5,106.5C 195.5,105.833 195.5,105.167 195.5,104.5C 195.567,103.041 195.234,101.708 194.5,100.5 Z"/></g>
<g><path style="opacity:1" fill="#82736a" d="M 346.5,87.5 C 346.5,90.5 346.5,93.5 346.5,96.5C 358.3,96.6767 359.634,100.677 350.5,108.5C 349.833,108.833 349.167,109.167 348.5,109.5C 347.5,109.167 346.833,108.5 346.5,107.5C 347.067,104.089 345.734,102.089 342.5,101.5C 346.908,101.062 348.575,103.062 347.5,107.5C 352.228,106.401 354.895,103.401 355.5,98.5C 352.121,98.112 348.788,97.4453 345.5,96.5C 344.158,93.2363 344.492,90.2363 346.5,87.5 Z"/></g>
<g><path style="opacity:1" fill="#2b1f1b" d="M 73.5,89.5 C 74.4794,92.6248 74.8128,95.9581 74.5,99.5C 74.573,101.027 73.9063,102.027 72.5,102.5C 71.1667,102.5 69.8333,102.5 68.5,102.5C 68.4208,103.93 68.7542,105.264 69.5,106.5C 68.3112,107.429 66.9778,107.762 65.5,107.5C 64.5,107.5 63.5,107.5 62.5,107.5C 62.2525,105.142 62.9192,103.142 64.5,101.5C 65.1667,101.5 65.8333,101.5 66.5,101.5C 69.7016,101.463 71.3683,99.7967 71.5,96.5C 71.5,95.8333 71.5,95.1667 71.5,94.5C 71.8333,94.5 72.1667,94.5 72.5,94.5C 73.4511,93.0813 73.7845,91.4147 73.5,89.5 Z"/></g>
<g><path style="opacity:1" fill="#bc9f97" d="M 64.5,101.5 C 62.9192,103.142 62.2525,105.142 62.5,107.5C 61.5,107.833 60.8333,108.5 60.5,109.5C 59.0937,109.027 58.427,108.027 58.5,106.5C 59.8652,104.206 61.8652,102.539 64.5,101.5 Z"/></g>
<g><path style="opacity:1" fill="#421119" d="M 335.5,101.5 C 336.583,101.539 337.583,101.873 338.5,102.5C 339.247,106.187 341.247,107.187 344.5,105.5C 345.298,105.957 345.631,106.624 345.5,107.5C 342.242,108.908 339.076,110.574 336,112.5C 335.888,110.243 336.388,108.076 337.5,106C 337.481,104.167 336.815,102.667 335.5,101.5 Z"/></g>
<g><path style="opacity:1" fill="#351217" d="M 72.5,102.5 C 71.1667,104.833 71.1667,107.167 72.5,109.5C 71.791,110.404 70.791,110.737 69.5,110.5C 68.1283,109.488 66.795,108.488 65.5,107.5C 66.9778,107.762 68.3112,107.429 69.5,106.5C 68.7542,105.264 68.4208,103.93 68.5,102.5C 69.8333,102.5 71.1667,102.5 72.5,102.5 Z"/></g>
<g><path style="opacity:1" fill="#6d0b19" d="M 72.5,109.5 C 74.0481,109.821 74.7148,110.821 74.5,112.5C 72.4471,112.598 70.7804,111.931 69.5,110.5C 70.791,110.737 71.791,110.404 72.5,109.5 Z"/></g>
<g><path style="opacity:1" fill="#31191b" d="M 350.5,108.5 C 350.5,110.167 350.5,111.833 350.5,113.5C 353.195,113.319 355.528,112.319 357.5,110.5C 357.5,111.833 357.5,113.167 357.5,114.5C 357.909,118.876 358.575,123.21 359.5,127.5C 357.774,125.058 356.274,122.391 355,119.5C 351.395,117.069 349.228,113.735 348.5,109.5C 349.167,109.167 349.833,108.833 350.5,108.5 Z"/></g>
<g><path style="opacity:1" fill="#cc1f3e" d="M 217.5,103.5 C 217.217,104.289 216.717,104.956 216,105.5C 215.5,115.494 215.334,125.494 215.5,135.5C 215.167,135.5 214.833,135.5 214.5,135.5C 214.334,125.161 214.5,114.828 215,104.5C 215.671,103.748 216.504,103.414 217.5,103.5 Z"/></g>
<g><path style="opacity:1" fill="#b2a298" d="M 210.5,145.5 C 210.167,145.5 209.833,145.5 209.5,145.5C 209.5,132.5 209.5,119.5 209.5,106.5C 206.5,106.5 203.5,106.5 200.5,106.5C 199.833,115.833 199.167,125.167 198.5,134.5C 198.5,124.833 198.5,115.167 198.5,105.5C 202.5,105.5 206.5,105.5 210.5,105.5C 210.5,118.833 210.5,132.167 210.5,145.5 Z"/></g>
<g><path style="opacity:1" fill="#3e0b13" d="M 193.5,103.5 C 194.167,103.833 194.833,104.167 195.5,104.5C 195.5,105.167 195.5,105.833 195.5,106.5C 195.292,125.836 194.958,145.169 194.5,164.5C 200.789,165.372 207.122,165.705 213.5,165.5C 207.347,166.653 201.014,166.82 194.5,166C 193.426,165.261 192.759,164.261 192.5,163C 194.27,143.18 194.603,123.347 193.5,103.5 Z"/></g>
<g><path style="opacity:1" fill="#5a0e18" d="M 131.5,132.5 C 130.833,132.5 130.167,132.5 129.5,132.5C 121.833,132.5 114.167,132.5 106.5,132.5C 105.903,131.861 105.07,131.528 104,131.5C 102.624,131.684 101.791,132.351 101.5,133.5C 99.6227,132.171 99.4561,130.838 101,129.5C 111.26,130.946 121.426,131.946 131.5,132.5 Z"/></g>
<g><path style="opacity:1" fill="#371919" d="M 60.5,110.5 C 59.9884,113.848 58.155,116.181 55,117.5C 50.8529,124.796 47.5196,132.463 45,140.5C 44.3333,143.167 44.3333,145.833 45,148.5C 47.0129,150.248 49.1795,151.582 51.5,152.5C 48.7212,152.721 46.0545,152.388 43.5,151.5C 43.5,145.167 43.5,138.833 43.5,132.5C 45.7929,125.248 49.1262,118.581 53.5,112.5C 53.369,113.239 53.5357,113.906 54,114.5C 55.3561,113.62 56.8561,113.286 58.5,113.5C 58.2852,111.821 58.9519,110.821 60.5,110.5 Z"/></g>
<g><path style="opacity:1" fill="#1d1818" d="M 106.5,132.5 C 114.167,132.5 121.833,132.5 129.5,132.5C 129.881,133.931 130.881,134.764 132.5,135C 136.821,135.499 141.154,135.666 145.5,135.5C 147.23,137.121 149.23,138.455 151.5,139.5C 140.934,136.91 130.267,135.91 119.5,136.5C 120.188,137.855 121.188,138.855 122.5,139.5C 122.389,140.117 122.056,140.617 121.5,141C 118.518,141.498 115.518,141.665 112.5,141.5C 109.948,137.784 106.615,134.951 102.5,133C 103.793,132.51 105.127,132.343 106.5,132.5 Z"/></g>
<g><path style="opacity:1" fill="#441316" d="M 305.5,134.5 C 303.777,133.2 301.61,132.533 299,132.5C 289.17,133.285 279.337,133.952 269.5,134.5C 272.023,133.616 274.69,132.782 277.5,132C 287.745,131.906 297.911,131.073 308,129.5C 309.496,131.862 308.662,133.529 305.5,134.5 Z"/></g>
<g><path style="opacity:1" fill="#381015" d="M 129.5,132.5 C 130.167,132.5 130.833,132.5 131.5,132.5C 136.339,133.266 141.006,134.266 145.5,135.5C 141.154,135.666 136.821,135.499 132.5,135C 130.881,134.764 129.881,133.931 129.5,132.5 Z"/></g>
<g><path style="opacity:1" fill="#151a19" d="M 151.5,139.5 C 152.167,139.5 152.5,139.833 152.5,140.5C 152.468,142.567 151.468,143.9 149.5,144.5C 141.557,141.129 133.224,139.462 124.5,139.5C 123.833,139.5 123.167,139.5 122.5,139.5C 121.188,138.855 120.188,137.855 119.5,136.5C 130.267,135.91 140.934,136.91 151.5,139.5 Z"/></g>
<g><path style="opacity:1" fill="#1b1818" d="M 305.5,134.5 C 305.5,134.833 305.5,135.167 305.5,135.5C 303.801,135.34 302.134,135.506 300.5,136C 299.308,138.355 297.641,140.188 295.5,141.5C 293.473,141.338 291.473,141.505 289.5,142C 284.125,145.493 278.125,146.993 271.5,146.5C 271.5,147.5 271.5,148.5 271.5,149.5C 267.154,149.334 262.821,149.501 258.5,150C 258.043,150.414 257.709,150.914 257.5,151.5C 254.833,152.167 252.167,152.833 249.5,153.5C 249.137,154.183 248.804,154.85 248.5,155.5C 245.833,155.5 243.167,155.5 240.5,155.5C 240.704,153.315 241.37,151.315 242.5,149.5C 243.443,146.891 245.11,144.891 247.5,143.5C 254.348,139.328 261.681,136.328 269.5,134.5C 279.337,133.952 289.17,133.285 299,132.5C 301.61,132.533 303.777,133.2 305.5,134.5 Z"/></g>
<g><path style="opacity:1" fill="#371216" d="M 106.5,132.5 C 105.127,132.343 103.793,132.51 102.5,133C 106.615,134.951 109.948,137.784 112.5,141.5C 107.939,140.054 104.272,137.387 101.5,133.5C 101.791,132.351 102.624,131.684 104,131.5C 105.07,131.528 105.903,131.861 106.5,132.5 Z"/></g>
<g><path style="opacity:1" fill="#361015" d="M 145.5,135.5 C 151.192,136.514 156.192,138.848 160.5,142.5C 157.67,142.306 155.004,141.639 152.5,140.5C 152.5,139.833 152.167,139.5 151.5,139.5C 149.23,138.455 147.23,137.121 145.5,135.5 Z"/></g>
<g><path style="opacity:1" fill="#431017" d="M 269.5,134.5 C 261.681,136.328 254.348,139.328 247.5,143.5C 248.29,142.206 249.29,141.039 250.5,140C 256.516,136.825 262.849,134.992 269.5,134.5 Z"/></g>
<g><path style="opacity:1" fill="#361114" d="M 305.5,135.5 C 302.462,138.018 299.129,140.018 295.5,141.5C 297.641,140.188 299.308,138.355 300.5,136C 302.134,135.506 303.801,135.34 305.5,135.5 Z"/></g>
<g><path style="opacity:1" fill="#291818" d="M 236.5,93.5 C 236.047,94.4584 235.381,95.2917 234.5,96C 228.743,98.5505 223.077,101.05 217.5,103.5C 216.504,103.414 215.671,103.748 215,104.5C 214.5,114.828 214.334,125.161 214.5,135.5C 214.5,145.167 214.5,154.833 214.5,164.5C 214.5,165.167 214.167,165.5 213.5,165.5C 207.122,165.705 200.789,165.372 194.5,164.5C 194.958,145.169 195.292,125.836 195.5,106.5C 196.138,124.503 196.471,142.503 196.5,160.5C 196.842,161.338 197.508,161.672 198.5,161.5C 199.167,161.5 199.833,161.5 200.5,161.5C 203.771,163.862 207.104,163.862 210.5,161.5C 211.812,159.257 212.478,156.59 212.5,153.5C 212.497,150.645 212.164,147.978 211.5,145.5C 211.184,130.422 211.517,115.422 212.5,100.5C 217.136,99.5254 221.802,98.5254 226.5,97.5C 226.709,96.914 227.043,96.414 227.5,96C 230.753,95.7991 233.753,94.9657 236.5,93.5 Z"/></g>
<g><path style="opacity:1" fill="#d8c8bc" d="M 200.5,106.5 C 200.78,122.353 200.447,138.187 199.5,154C 200.091,156.239 200.758,158.406 201.5,160.5C 203.527,160.662 205.527,160.495 207.5,160C 206.742,158.636 207.242,157.469 209,156.5C 209.499,152.848 209.665,149.182 209.5,145.5C 209.833,145.5 210.167,145.5 210.5,145.5C 210.833,145.5 211.167,145.5 211.5,145.5C 211.782,150.927 211.449,156.26 210.5,161.5C 207.167,161.5 203.833,161.5 200.5,161.5C 199.833,161.5 199.167,161.5 198.5,161.5C 197.548,155.925 197.214,150.259 197.5,144.5C 198.479,141.375 198.813,138.042 198.5,134.5C 199.167,125.167 199.833,115.833 200.5,106.5 Z"/></g>
<g><path style="opacity:1" fill="#f9e1d0" d="M 200.5,106.5 C 203.5,106.5 206.5,106.5 209.5,106.5C 209.5,119.5 209.5,132.5 209.5,145.5C 209.665,149.182 209.499,152.848 209,156.5C 207.242,157.469 206.742,158.636 207.5,160C 205.527,160.495 203.527,160.662 201.5,160.5C 200.758,158.406 200.091,156.239 199.5,154C 200.447,138.187 200.78,122.353 200.5,106.5 Z"/></g>
<g><path style="opacity:1" fill="#440c14" d="M 214.5,135.5 C 214.833,135.5 215.167,135.5 215.5,135.5C 215.279,143.692 215.612,151.859 216.5,160C 216.693,162.008 216.026,163.508 214.5,164.5C 214.5,154.833 214.5,145.167 214.5,135.5 Z"/></g>
<g><path style="opacity:1" fill="#271c1b" d="M 43.5,132.5 C 43.5,138.833 43.5,145.167 43.5,151.5C 40.6122,152.01 38.2789,151.344 36.5,149.5C 40.0539,145.182 42.0539,140.182 42.5,134.5C 42.3284,133.508 42.6618,132.842 43.5,132.5 Z"/></g>
<g><path style="opacity:1" fill="#151a18" d="M 154.5,152.5 C 146.719,151.074 139.052,149.408 131.5,147.5C 130.859,146.518 130.193,145.518 129.5,144.5C 130.167,144.167 130.833,143.833 131.5,143.5C 137.527,144.846 143.527,146.512 149.5,148.5C 150.5,148.333 151.5,148.167 152.5,148C 153.916,143.825 156.582,142.658 160.5,144.5C 159.675,145.386 158.675,145.719 157.5,145.5C 156.989,148.022 155.989,150.355 154.5,152.5 Z"/></g>
<g><path style="opacity:1" fill="#1d1719" d="M 124.5,139.5 C 133.224,139.462 141.557,141.129 149.5,144.5C 151.468,143.9 152.468,142.567 152.5,140.5C 155.004,141.639 157.67,142.306 160.5,142.5C 162.5,143.833 164.167,145.5 165.5,147.5C 165.5,148.167 165.5,148.833 165.5,149.5C 165.5,150.833 165.5,152.167 165.5,153.5C 161.785,153.577 158.119,153.244 154.5,152.5C 155.989,150.355 156.989,148.022 157.5,145.5C 158.675,145.719 159.675,145.386 160.5,144.5C 156.582,142.658 153.916,143.825 152.5,148C 151.5,148.167 150.5,148.333 149.5,148.5C 143.527,146.512 137.527,144.846 131.5,143.5C 130.833,143.833 130.167,144.167 129.5,144.5C 130.193,145.518 130.859,146.518 131.5,147.5C 128.739,146.08 125.739,145.413 122.5,145.5C 122.5,144.167 122.5,142.833 122.5,141.5C 124.993,141.869 125.66,141.203 124.5,139.5 Z"/></g>
<g><path style="opacity:0.761" fill="#70645d" d="M 42.5,134.5 C 42.0539,140.182 40.0539,145.182 36.5,149.5C 34.7837,151.025 32.7837,152.025 30.5,152.5C 33.1041,150.4 35.6041,148.067 38,145.5C 39.4284,141.693 40.9284,138.026 42.5,134.5 Z"/></g>
<g><path style="opacity:1" fill="#2b1515" d="M 122.5,139.5 C 123.167,139.5 123.833,139.5 124.5,139.5C 125.66,141.203 124.993,141.869 122.5,141.5C 122.5,142.833 122.5,144.167 122.5,145.5C 125.739,145.413 128.739,146.08 131.5,147.5C 139.052,149.408 146.719,151.074 154.5,152.5C 158.119,153.244 161.785,153.577 165.5,153.5C 165.5,152.167 165.5,150.833 165.5,149.5C 167.346,151.03 168.346,153.03 168.5,155.5C 164.833,155.5 161.167,155.5 157.5,155.5C 141.676,153.047 126.676,148.38 112.5,141.5C 115.518,141.665 118.518,141.498 121.5,141C 122.056,140.617 122.389,140.117 122.5,139.5 Z"/></g>
<g><path style="opacity:1" fill="#2e1414" d="M 295.5,141.5 C 291.285,144.438 286.618,146.605 281.5,148C 270.656,151.295 259.656,153.795 248.5,155.5C 248.804,154.85 249.137,154.183 249.5,153.5C 252.167,152.833 254.833,152.167 257.5,151.5C 257.709,150.914 258.043,150.414 258.5,150C 262.821,149.501 267.154,149.334 271.5,149.5C 271.5,148.5 271.5,147.5 271.5,146.5C 278.125,146.993 284.125,145.493 289.5,142C 291.473,141.505 293.473,141.338 295.5,141.5 Z"/></g>
<g><path style="opacity:1" fill="#8b7870" d="M 369.5,152.5 C 371.5,152.5 372.5,153.5 372.5,155.5C 370.971,154.653 369.304,153.986 367.5,153.5C 364.198,154.38 360.865,155.046 357.5,155.5C 361.098,153.308 365.098,152.308 369.5,152.5 Z"/></g>
<g><path style="opacity:1" fill="#574a47" d="M 211.5,145.5 C 212.164,147.978 212.497,150.645 212.5,153.5C 212.478,156.59 211.812,159.257 210.5,161.5C 211.449,156.26 211.782,150.927 211.5,145.5 Z"/></g>
<g><path style="opacity:1" fill="#f8e0cf" d="M 55.5,156.5 C 56.1522,157.725 57.3189,158.392 59,158.5C 61.4979,158.917 63.9979,159.251 66.5,159.5C 66.5,160.833 66.5,162.167 66.5,163.5C 65.6618,163.842 65.3284,164.508 65.5,165.5C 62.785,167.548 60.4517,169.882 58.5,172.5C 57.3775,174.288 57.2109,176.288 58,178.5C 62.0356,182.704 66.2022,186.704 70.5,190.5C 75.8896,195.894 81.5563,200.894 87.5,205.5C 89.5691,208.573 92.2358,210.906 95.5,212.5C 96.2899,213.794 97.2899,214.961 98.5,216C 100.97,216.989 103.303,218.155 105.5,219.5C 107.275,222.211 109.609,224.211 112.5,225.5C 112.209,226.649 111.376,227.316 110,227.5C 107.815,227.079 105.649,226.579 103.5,226C 104.5,225.667 105.5,225.333 106.5,225C 100.811,224.627 95.1445,224.127 89.5,223.5C 89.1667,223.5 88.8333,223.5 88.5,223.5C 84.044,219.462 78.7106,217.796 72.5,218.5C 72.1667,218.5 71.8333,218.5 71.5,218.5C 69.8243,216.166 67.491,215.166 64.5,215.5C 64.3893,214.883 64.056,214.383 63.5,214C 60.2231,212.857 56.8898,212.023 53.5,211.5C 51.3826,209.345 48.716,208.345 45.5,208.5C 44.8333,207.833 44.1667,207.167 43.5,206.5C 40.0317,203.772 36.0317,202.105 31.5,201.5C 29.9663,199.631 27.9663,198.298 25.5,197.5C 23.8079,195.795 22.4746,193.795 21.5,191.5C 22.287,189.896 23.6203,189.229 25.5,189.5C 30.1508,188.76 31.6508,186.094 30,181.5C 28.2591,180.242 26.4258,179.242 24.5,178.5C 22.3295,176.914 19.9962,175.58 17.5,174.5C 16.1902,172.852 14.8569,171.186 13.5,169.5C 17.4746,167.501 21.1413,165.168 24.5,162.5C 25.5137,161.326 26.847,160.66 28.5,160.5C 31.1979,160.155 33.1979,158.822 34.5,156.5C 36.5715,155.046 38.7381,153.713 41,152.5C 45.7424,154.295 50.5758,155.629 55.5,156.5 Z"/></g>
<g><path style="opacity:1" fill="#4d0e1a" d="M 165.5,147.5 C 169.851,150.398 170.351,153.732 167,157.5C 163.73,156.868 160.563,156.201 157.5,155.5C 161.167,155.5 164.833,155.5 168.5,155.5C 168.346,153.03 167.346,151.03 165.5,149.5C 165.5,148.833 165.5,148.167 165.5,147.5 Z"/></g>
<g><path style="opacity:1" fill="#615c56" d="M 197.5,144.5 C 197.214,150.259 197.548,155.925 198.5,161.5C 197.508,161.672 196.842,161.338 196.5,160.5C 196.179,154.974 196.512,149.64 197.5,144.5 Z"/></g>
<g><path style="opacity:1" fill="#460e18" d="M 242.5,149.5 C 241.37,151.315 240.704,153.315 240.5,155.5C 243.167,155.5 245.833,155.5 248.5,155.5C 246.107,156.21 243.607,156.877 241,157.5C 238.745,154.275 239.245,151.608 242.5,149.5 Z"/></g>
<g><path style="opacity:1" fill="#f8e0ce" d="M 372.5,155.5 C 374.975,158.241 377.975,160.241 381.5,161.5C 385.561,163.86 389.894,165.694 394.5,167C 395.38,168.356 395.714,169.856 395.5,171.5C 393.407,172.045 391.407,172.878 389.5,174C 386.116,176.41 382.782,178.91 379.5,181.5C 378.212,183.299 378.212,184.965 379.5,186.5C 380.743,190.136 383.41,191.803 387.5,191.5C 387.5,192.5 387.5,193.5 387.5,194.5C 385.29,194.894 383.957,196.227 383.5,198.5C 382.167,198.833 380.833,199.167 379.5,199.5C 376.728,199.759 374.395,200.759 372.5,202.5C 371.694,203.728 370.694,204.728 369.5,205.5C 368.127,205.343 366.793,205.51 365.5,206C 364.045,207.626 362.378,208.792 360.5,209.5C 359.167,209.833 357.833,210.167 356.5,210.5C 354.216,211.029 352.216,212.029 350.5,213.5C 347.208,214.496 343.875,215.496 340.5,216.5C 336.636,218.01 332.636,219.343 328.5,220.5C 327.287,220.747 326.62,221.414 326.5,222.5C 326.167,222.5 325.833,222.5 325.5,222.5C 321.803,223.008 318.136,223.674 314.5,224.5C 310.837,225.112 307.17,225.279 303.5,225C 303.043,224.586 302.709,224.086 302.5,223.5C 303.524,222.148 304.524,220.815 305.5,219.5C 308.784,217.883 311.451,215.55 313.5,212.5C 318.129,209.841 322.462,206.674 326.5,203C 333.856,194.717 341.523,186.884 349.5,179.5C 351.89,179.315 352.89,177.982 352.5,175.5C 352.333,174.5 352.167,173.5 352,172.5C 348.782,169.515 346.282,166.015 344.5,162C 343.952,160.404 344.618,159.237 346.5,158.5C 350.231,157.775 353.898,156.775 357.5,155.5C 360.865,155.046 364.198,154.38 367.5,153.5C 369.304,153.986 370.971,154.653 372.5,155.5 Z"/></g>
<g><path style="opacity:1" fill="#655850" d="M 372.5,155.5 C 376.252,155.94 379.252,157.607 381.5,160.5C 381.5,160.833 381.5,161.167 381.5,161.5C 377.975,160.241 374.975,158.241 372.5,155.5 Z"/></g>
<g><path style="opacity:1" fill="#655954" d="M 34.5,156.5 C 33.1979,158.822 31.1979,160.155 28.5,160.5C 29.6338,157.966 31.6338,156.633 34.5,156.5 Z"/></g>
<g><path style="opacity:1" fill="#b09d93" d="M 55.5,156.5 C 59.4809,157.021 63.4809,157.354 67.5,157.5C 67.8333,158.167 68.1667,158.833 68.5,159.5C 68.7709,161.38 68.1042,162.713 66.5,163.5C 66.5,162.167 66.5,160.833 66.5,159.5C 63.9979,159.251 61.4979,158.917 59,158.5C 57.3189,158.392 56.1522,157.725 55.5,156.5 Z"/></g>
<g><path style="opacity:1" fill="#381518" d="M 52.5,152.5 C 58.8846,153.423 65.218,154.589 71.5,156C 73.8134,159.612 73.1468,162.779 69.5,165.5C 69.5,164.833 69.5,164.167 69.5,163.5C 69.7678,161.901 69.4345,160.568 68.5,159.5C 68.1667,158.833 67.8333,158.167 67.5,157.5C 67.3893,156.883 67.056,156.383 66.5,156C 61.3736,155.64 56.7069,154.473 52.5,152.5 Z"/></g>
<g><path style="opacity:1" fill="#60554d" d="M 27.5,154.5 C 23.7454,158.378 19.0787,160.711 13.5,161.5C 17.8489,158.659 22.5156,156.326 27.5,154.5 Z"/></g>
<g><path style="opacity:1" fill="#695c56" d="M 357.5,155.5 C 353.898,156.775 350.231,157.775 346.5,158.5C 342.759,157.599 340.759,158.932 340.5,162.5C 339.113,160.511 339.447,158.678 341.5,157C 346.844,156.529 352.178,156.029 357.5,155.5 Z"/></g>
<g><path style="opacity:1" fill="#322823" d="M 36.5,149.5 C 38.2789,151.344 40.6122,152.01 43.5,151.5C 46.0545,152.388 48.7212,152.721 51.5,152.5C 51.8333,152.5 52.1667,152.5 52.5,152.5C 56.7069,154.473 61.3736,155.64 66.5,156C 67.056,156.383 67.3893,156.883 67.5,157.5C 63.4809,157.354 59.4809,157.021 55.5,156.5C 50.5758,155.629 45.7424,154.295 41,152.5C 38.7381,153.713 36.5715,155.046 34.5,156.5C 31.6338,156.633 29.6338,157.966 28.5,160.5C 26.847,160.66 25.5137,161.326 24.5,162.5C 20.9338,163.438 17.6005,164.771 14.5,166.5C 14.0377,165.12 13.0377,164.453 11.5,164.5C 8.88531,165.269 6.21865,165.603 3.5,165.5C 3.40027,168.108 4.06694,170.442 5.5,172.5C 4.83333,172.5 4.16667,172.5 3.5,172.5C 2.85353,170.844 2.18687,169.177 1.5,167.5C 1.84827,165.152 3.1816,163.818 5.5,163.5C 8.32736,163.416 10.994,162.75 13.5,161.5C 19.0787,160.711 23.7454,158.378 27.5,154.5C 27.9731,153.094 28.9731,152.427 30.5,152.5C 32.7837,152.025 34.7837,151.025 36.5,149.5 Z"/></g>
<g><path style="opacity:1" fill="#ddc4bb" d="M 346.5,158.5 C 344.618,159.237 343.952,160.404 344.5,162C 346.282,166.015 348.782,169.515 352,172.5C 352.167,173.5 352.333,174.5 352.5,175.5C 352.89,177.982 351.89,179.315 349.5,179.5C 349.833,178.833 350.167,178.167 350.5,177.5C 350.946,174.99 350.28,172.99 348.5,171.5C 346.528,167.895 343.861,164.895 340.5,162.5C 340.759,158.932 342.759,157.599 346.5,158.5 Z"/></g>
<g><path style="opacity:1" fill="#4b3c37" d="M 200.5,161.5 C 203.833,161.5 207.167,161.5 210.5,161.5C 207.104,163.862 203.771,163.862 200.5,161.5 Z"/></g>
<g><path style="opacity:1" fill="#302722" d="M 381.5,161.5 C 381.5,161.167 381.5,160.833 381.5,160.5C 385.163,160.952 388.83,161.452 392.5,162C 394.359,163.981 396.692,164.981 399.5,165C 397.812,167.825 396.979,170.991 397,174.5C 392.963,177.352 388.629,179.686 384,181.5C 383.333,182.5 383.333,183.5 384,184.5C 386.833,187.333 389.667,190.167 392.5,193C 391.552,193.483 390.552,193.649 389.5,193.5C 389.5,192.5 389.5,191.5 389.5,190.5C 385.773,190.505 382.773,189.171 380.5,186.5C 380.343,185.127 380.51,183.793 381,182.5C 386.06,178.914 390.894,175.248 395.5,171.5C 395.714,169.856 395.38,168.356 394.5,167C 389.894,165.694 385.561,163.86 381.5,161.5 Z"/></g>
<g><path style="opacity:1" fill="#635752" d="M 68.5,159.5 C 69.4345,160.568 69.7678,161.901 69.5,163.5C 68.1667,164.167 66.8333,164.833 65.5,165.5C 65.3284,164.508 65.6618,163.842 66.5,163.5C 68.1042,162.713 68.7709,161.38 68.5,159.5 Z"/></g>
<g><path style="opacity:1" fill="#8b7e71" d="M 65.5,165.5 C 64.1886,168.811 61.8553,171.145 58.5,172.5C 60.4517,169.882 62.785,167.548 65.5,165.5 Z"/></g>
<g><path style="opacity:1" fill="#b19f94" d="M 5.5,163.5 C 3.1816,163.818 1.84827,165.152 1.5,167.5C 2.18687,169.177 2.85353,170.844 3.5,172.5C 1.72632,171.63 0.392987,170.297 -0.5,168.5C -0.5,167.5 -0.5,166.5 -0.5,165.5C 0.626561,164.878 1.62656,164.045 2.5,163C 3.74943,162.26 4.74943,162.427 5.5,163.5 Z"/></g>
<g><path style="opacity:1" fill="#554438" d="M 340.5,162.5 C 343.861,164.895 346.528,167.895 348.5,171.5C 347.833,171.5 347.167,171.5 346.5,171.5C 342.943,169.598 340.943,166.598 340.5,162.5 Z"/></g>
<g><path style="opacity:1" fill="#8d7e74" d="M 24.5,162.5 C 21.1413,165.168 17.4746,167.501 13.5,169.5C 14.8569,171.186 16.1902,172.852 17.5,174.5C 15.4175,173.412 13.2508,172.412 11,171.5C 10.3599,168.632 11.5266,166.965 14.5,166.5C 17.6005,164.771 20.9338,163.438 24.5,162.5 Z"/></g>
<g><path style="opacity:1" fill="#2b211a" d="M 346.5,171.5 C 347.167,171.5 347.833,171.5 348.5,171.5C 350.28,172.99 350.946,174.99 350.5,177.5C 348.938,177.733 347.605,178.4 346.5,179.5C 346.5,176.833 346.5,174.167 346.5,171.5 Z"/></g>
<g><path style="opacity:1" fill="#8d7e72" d="M 395.5,171.5 C 390.894,175.248 386.06,178.914 381,182.5C 380.51,183.793 380.343,185.127 380.5,186.5C 380.167,186.5 379.833,186.5 379.5,186.5C 378.212,184.965 378.212,183.299 379.5,181.5C 382.782,178.91 386.116,176.41 389.5,174C 391.407,172.878 393.407,172.045 395.5,171.5 Z"/></g>
<g><path style="opacity:1" fill="#3f0d14" d="M 211.5,187.5 C 211.5,186.5 211.5,185.5 211.5,184.5C 211.5,184.167 211.5,183.833 211.5,183.5C 214.121,182.879 215.788,181.212 216.5,178.5C 212.5,178.167 208.5,177.833 204.5,177.5C 200.107,177.509 196.107,178.176 192.5,179.5C 191.596,178.791 191.263,177.791 191.5,176.5C 200.152,175.283 208.818,175.283 217.5,176.5C 217.193,181.128 215.193,184.795 211.5,187.5 Z"/></g>
<g><path style="opacity:1" fill="#9b8e84" d="M 3.5,172.5 C 4.16667,172.5 4.83333,172.5 5.5,172.5C 10.4792,175.803 15.4792,179.136 20.5,182.5C 20.5,183.5 20.5,184.5 20.5,185.5C 17.4318,186.022 14.4318,186.855 11.5,188C 10.6198,189.356 10.2865,190.856 10.5,192.5C 6.61256,189.767 6.94589,187.267 11.5,185C 13.5767,184.808 15.5767,184.308 17.5,183.5C 12.44,180.307 7.77333,176.64 3.5,172.5 Z"/></g>
<g><path style="opacity:1" fill="#241d19" d="M 14.5,166.5 C 11.5266,166.965 10.3599,168.632 11,171.5C 13.2508,172.412 15.4175,173.412 17.5,174.5C 17.5,175.5 17.5,176.5 17.5,177.5C 20.3539,178.026 23.0206,179.026 25.5,180.5C 25.8417,181.338 26.5084,181.672 27.5,181.5C 27.9231,184.288 26.9231,186.288 24.5,187.5C 23.3112,185.637 21.9779,183.97 20.5,182.5C 15.4792,179.136 10.4792,175.803 5.5,172.5C 4.06694,170.442 3.40027,168.108 3.5,165.5C 6.21865,165.603 8.88531,165.269 11.5,164.5C 13.0377,164.453 14.0377,165.12 14.5,166.5 Z"/></g>
<g><path style="opacity:1" fill="#a9938b" d="M 58.5,172.5 C 58.3398,174.199 58.5065,175.866 59,177.5C 63.037,181.369 66.8704,185.369 70.5,189.5C 70.5,189.833 70.5,190.167 70.5,190.5C 66.2022,186.704 62.0356,182.704 58,178.5C 57.2109,176.288 57.3775,174.288 58.5,172.5 Z"/></g>
<g><path style="opacity:1" fill="#524740" d="M 17.5,174.5 C 19.9962,175.58 22.3295,176.914 24.5,178.5C 24.8333,179.167 25.1667,179.833 25.5,180.5C 23.0206,179.026 20.3539,178.026 17.5,177.5C 17.5,176.5 17.5,175.5 17.5,174.5 Z"/></g>
<g><path style="opacity:1" fill="#2c1d1c" d="M 211.5,183.5 C 211.737,182.209 211.404,181.209 210.5,180.5C 206.167,180.5 201.833,180.5 197.5,180.5C 197.273,182.933 198.273,184.599 200.5,185.5C 201.167,186.833 201.833,188.167 202.5,189.5C 203.601,190.598 204.934,190.765 206.5,190C 207.664,187.672 209.33,185.838 211.5,184.5C 211.5,185.5 211.5,186.5 211.5,187.5C 210.132,192.377 207.132,195.211 202.5,196C 198.764,190.685 195.43,185.185 192.5,179.5C 196.107,178.176 200.107,177.509 204.5,177.5C 208.5,177.833 212.5,178.167 216.5,178.5C 215.788,181.212 214.121,182.879 211.5,183.5 Z"/></g>
<g><path style="opacity:1" fill="#b4a398" d="M 24.5,178.5 C 26.4258,179.242 28.2591,180.242 30,181.5C 31.6508,186.094 30.1508,188.76 25.5,189.5C 26.3149,188.163 27.4815,187.163 29,186.5C 29.8769,184.326 29.3769,182.659 27.5,181.5C 26.5084,181.672 25.8417,181.338 25.5,180.5C 25.1667,179.833 24.8333,179.167 24.5,178.5 Z"/></g>
<g><path style="opacity:1" fill="#a79b90" d="M 210.5,180.5 C 210.737,181.791 210.404,182.791 209.5,183.5C 208.306,182.223 206.64,181.556 204.5,181.5C 202.833,181.833 201.167,182.167 199.5,182.5C 200.127,183.417 200.461,184.417 200.5,185.5C 198.273,184.599 197.273,182.933 197.5,180.5C 201.833,180.5 206.167,180.5 210.5,180.5 Z"/></g>
<g><path style="opacity:1" fill="#ead7cb" d="M 209.5,183.5 C 207.998,185.175 206.665,187.008 205.5,189C 204.552,189.483 203.552,189.649 202.5,189.5C 201.833,188.167 201.167,186.833 200.5,185.5C 200.461,184.417 200.127,183.417 199.5,182.5C 201.167,182.167 202.833,181.833 204.5,181.5C 206.64,181.556 208.306,182.223 209.5,183.5 Z"/></g>
<g><path style="opacity:1" fill="#6e605b" d="M 210.5,180.5 C 211.404,181.209 211.737,182.209 211.5,183.5C 211.5,183.833 211.5,184.167 211.5,184.5C 209.33,185.838 207.664,187.672 206.5,190C 204.934,190.765 203.601,190.598 202.5,189.5C 203.552,189.649 204.552,189.483 205.5,189C 206.665,187.008 207.998,185.175 209.5,183.5C 210.404,182.791 210.737,181.791 210.5,180.5 Z"/></g>
<g><path style="opacity:1" fill="#3c352e" d="M 27.5,181.5 C 29.3769,182.659 29.8769,184.326 29,186.5C 27.4815,187.163 26.3149,188.163 25.5,189.5C 23.6203,189.229 22.287,189.896 21.5,191.5C 20.3143,192.705 20.3143,194.039 21.5,195.5C 19.5159,195.516 18.5159,194.516 18.5,192.5C 20.3764,190.952 21.3764,188.952 21.5,186.5C 18.4318,187.022 15.4318,187.855 12.5,189C 12.799,190.32 12.9657,191.82 13,193.5C 14.045,194.373 14.8783,195.373 15.5,196.5C 13.2512,195.92 11.5846,194.587 10.5,192.5C 10.2865,190.856 10.6198,189.356 11.5,188C 14.4318,186.855 17.4318,186.022 20.5,185.5C 20.5,184.5 20.5,183.5 20.5,182.5C 21.9779,183.97 23.3112,185.637 24.5,187.5C 26.9231,186.288 27.9231,184.288 27.5,181.5 Z"/></g>
<g><path style="opacity:1" fill="#716058" d="M 70.5,190.5 C 70.5,190.167 70.5,189.833 70.5,189.5C 76.7762,194.107 82.4428,199.441 87.5,205.5C 81.5563,200.894 75.8896,195.894 70.5,190.5 Z"/></g>
<g><path style="opacity:1" fill="#c4b2a7" d="M 379.5,186.5 C 379.833,186.5 380.167,186.5 380.5,186.5C 382.773,189.171 385.773,190.505 389.5,190.5C 389.5,191.5 389.5,192.5 389.5,193.5C 388.833,193.833 388.167,194.167 387.5,194.5C 387.5,193.5 387.5,192.5 387.5,191.5C 383.41,191.803 380.743,190.136 379.5,186.5 Z"/></g>
<g><path style="opacity:1" fill="#968980" d="M 21.5,191.5 C 22.4746,193.795 23.8079,195.795 25.5,197.5C 23.847,197.34 22.5137,196.674 21.5,195.5C 20.3143,194.039 20.3143,192.705 21.5,191.5 Z"/></g>
<g><path style="opacity:1" fill="#9b8b80" d="M 350.5,177.5 C 350.167,178.167 349.833,178.833 349.5,179.5C 341.523,186.884 333.856,194.717 326.5,203C 322.462,206.674 318.129,209.841 313.5,212.5C 317.241,208.782 321.241,205.282 325.5,202C 332.874,194.67 339.874,187.17 346.5,179.5C 347.605,178.4 348.938,177.733 350.5,177.5 Z"/></g>
<g><path style="opacity:1" fill="#473c34" d="M 389.5,193.5 C 388.732,196.562 386.732,198.228 383.5,198.5C 383.957,196.227 385.29,194.894 387.5,194.5C 388.167,194.167 388.833,193.833 389.5,193.5 Z"/></g>
<g><path style="opacity:1" fill="#3a1c18" d="M 69.5,163.5 C 69.5,164.167 69.5,164.833 69.5,165.5C 67.1543,168.337 65.1543,171.504 63.5,175C 64.924,178.092 66.7574,180.926 69,183.5C 85.4219,200.799 103.589,215.466 123.5,227.5C 121.708,227.634 120.042,227.301 118.5,226.5C 114.382,223.703 110.048,221.369 105.5,219.5C 104.71,218.206 103.71,217.039 102.5,216C 100.03,215.011 97.6968,213.845 95.5,212.5C 93.4309,209.427 90.7642,207.094 87.5,205.5C 82.4428,199.441 76.7762,194.107 70.5,189.5C 66.8704,185.369 63.037,181.369 59,177.5C 58.5065,175.866 58.3398,174.199 58.5,172.5C 61.8553,171.145 64.1886,168.811 65.5,165.5C 66.8333,164.833 68.1667,164.167 69.5,163.5 Z"/></g>
<g><path style="opacity:1" fill="#776b65" d="M 25.5,197.5 C 27.9663,198.298 29.9663,199.631 31.5,201.5C 28.8021,201.155 26.8021,199.822 25.5,197.5 Z"/></g>
<g><path style="opacity:1" fill="#401e1b" d="M 361.5,131.5 C 365.175,137.196 366.842,143.53 366.5,150.5C 368.179,150.285 369.179,150.952 369.5,152.5C 365.098,152.308 361.098,153.308 357.5,155.5C 352.178,156.029 346.844,156.529 341.5,157C 339.447,158.678 339.113,160.511 340.5,162.5C 340.943,166.598 342.943,169.598 346.5,171.5C 346.5,174.167 346.5,176.833 346.5,179.5C 339.874,187.17 332.874,194.67 325.5,202C 321.241,205.282 317.241,208.782 313.5,212.5C 310.208,214.458 307.208,216.791 304.5,219.5C 304.167,219.5 303.833,219.5 303.5,219.5C 301.147,220.34 299.147,221.674 297.5,223.5C 295.716,223.893 294.05,224.559 292.5,225.5C 293.241,223.646 294.241,221.979 295.5,220.5C 313.648,208.857 329.815,194.857 344,178.5C 344.667,176.167 344.667,173.833 344,171.5C 340.157,167.811 337.324,163.478 335.5,158.5C 336.01,156.912 337.01,155.745 338.5,155C 344.612,154.628 350.612,153.628 356.5,152C 363.825,151.338 366.325,147.505 364,140.5C 363.151,137.479 362.317,134.479 361.5,131.5 Z"/></g>
<g><path style="opacity:1" fill="#ab998c" d="M 379.5,199.5 C 377.824,201.834 375.491,202.834 372.5,202.5C 374.395,200.759 376.728,199.759 379.5,199.5 Z"/></g>
<g><path style="opacity:0.482" fill="#5b121e" d="M 27.5,204.5 C 29.5529,204.402 31.2196,205.069 32.5,206.5C 32.5,206.833 32.5,207.167 32.5,207.5C 30.326,207.25 28.6594,206.25 27.5,204.5 Z"/></g>
<g><path style="opacity:1" fill="#ab9b90" d="M 31.5,201.5 C 36.0317,202.105 40.0317,203.772 43.5,206.5C 38.7876,206.308 34.7876,204.641 31.5,201.5 Z"/></g>
<g><path style="opacity:1" fill="#75675e" d="M 87.5,205.5 C 90.7642,207.094 93.4309,209.427 95.5,212.5C 92.2358,210.906 89.5691,208.573 87.5,205.5 Z"/></g>
<g><path style="opacity:1" fill="#6a5b52" d="M 369.5,205.5 C 367.833,206.833 366.167,208.167 364.5,209.5C 363.167,209.5 361.833,209.5 360.5,209.5C 362.378,208.792 364.045,207.626 365.5,206C 366.793,205.51 368.127,205.343 369.5,205.5 Z"/></g>
<g><path style="opacity:1" fill="#222121" d="M 357.5,114.5 C 363.31,123.797 367.81,133.797 371,144.5C 381.558,154.849 394.058,161.516 408.5,164.5C 408.5,166.167 408.5,167.833 408.5,169.5C 403.156,174.324 397.322,178.657 391,182.5C 390.383,183.449 390.549,184.282 391.5,185C 393.5,185.333 395.5,185.667 397.5,186C 400.902,187.786 401.402,190.286 399,193.5C 386.7,204.074 372.867,212.241 357.5,218C 345.99,222.428 334.323,226.261 322.5,229.5C 332.546,224.363 342.88,219.363 353.5,214.5C 355.733,213.385 357.899,213.385 360,214.5C 361.356,212.591 362.856,210.924 364.5,209.5C 366.167,208.167 367.833,206.833 369.5,205.5C 370.694,204.728 371.694,203.728 372.5,202.5C 375.491,202.834 377.824,201.834 379.5,199.5C 380.833,199.167 382.167,198.833 383.5,198.5C 386.732,198.228 388.732,196.562 389.5,193.5C 390.552,193.649 391.552,193.483 392.5,193C 389.667,190.167 386.833,187.333 384,184.5C 383.333,183.5 383.333,182.5 384,181.5C 388.629,179.686 392.963,177.352 397,174.5C 396.979,170.991 397.812,167.825 399.5,165C 396.692,164.981 394.359,163.981 392.5,162C 388.83,161.452 385.163,160.952 381.5,160.5C 379.252,157.607 376.252,155.94 372.5,155.5C 372.5,153.5 371.5,152.5 369.5,152.5C 369.179,150.952 368.179,150.285 366.5,150.5C 366.842,143.53 365.175,137.196 361.5,131.5C 360.326,130.486 359.66,129.153 359.5,127.5C 358.575,123.21 357.909,118.876 357.5,114.5 Z"/></g>
<g><path style="opacity:1" fill="#7e6e68" d="M 45.5,208.5 C 48.716,208.345 51.3826,209.345 53.5,211.5C 50.4221,211.38 47.7554,210.38 45.5,208.5 Z"/></g>
<g><path style="opacity:1" fill="#44131a" d="M 32.5,206.5 C 35.6492,206.211 38.6492,206.711 41.5,208C 41.1667,208.333 40.8333,208.667 40.5,209C 44.8576,212.088 49.5243,214.588 54.5,216.5C 55.2975,216.957 55.6309,217.624 55.5,218.5C 47.3992,215.615 39.7325,211.949 32.5,207.5C 32.5,207.167 32.5,206.833 32.5,206.5 Z"/></g>
<g><path style="opacity:1" fill="#a38d87" d="M 53.5,211.5 C 56.8898,212.023 60.2231,212.857 63.5,214C 64.056,214.383 64.3893,214.883 64.5,215.5C 60.3266,215.333 56.6599,214 53.5,211.5 Z"/></g>
<g><path style="opacity:1" fill="#7c6a5f" d="M 356.5,210.5 C 355.313,212.975 353.313,213.975 350.5,213.5C 352.216,212.029 354.216,211.029 356.5,210.5 Z"/></g>
<g><path style="opacity:1" fill="#9c9085" d="M 313.5,212.5 C 311.451,215.55 308.784,217.883 305.5,219.5C 305.167,219.5 304.833,219.5 304.5,219.5C 307.208,216.791 310.208,214.458 313.5,212.5 Z"/></g>
<g><path style="opacity:1" fill="#695951" d="M 95.5,212.5 C 97.6968,213.845 100.03,215.011 102.5,216C 103.71,217.039 104.71,218.206 105.5,219.5C 103.303,218.155 100.97,216.989 98.5,216C 97.2899,214.961 96.2899,213.794 95.5,212.5 Z"/></g>
<g><path style="opacity:1" fill="#a2948a" d="M 64.5,215.5 C 67.491,215.166 69.8243,216.166 71.5,218.5C 68.8427,218.065 66.5093,217.065 64.5,215.5 Z"/></g>
<g><path style="opacity:1" fill="#cfbcb1" d="M 72.5,218.5 C 78.7106,217.796 84.044,219.462 88.5,223.5C 84.0644,221.631 79.3977,220.298 74.5,219.5C 73.5084,219.672 72.8417,219.338 72.5,218.5 Z"/></g>
<g><path style="opacity:1" fill="#807168" d="M 303.5,219.5 C 302.198,221.822 300.198,223.155 297.5,223.5C 299.147,221.674 301.147,220.34 303.5,219.5 Z"/></g>
<g><path style="opacity:0.973" fill="#56111b" d="M 56.5,218.5 C 61.1224,217.909 65.1224,219.076 68.5,222C 71.7201,223.352 75.0534,224.186 78.5,224.5C 81.1667,225.833 83.8333,227.167 86.5,228.5C 76.0856,226.14 66.0856,222.806 56.5,218.5 Z"/></g>
<g><path style="opacity:1" fill="#291d1b" d="M 21.5,195.5 C 22.5137,196.674 23.847,197.34 25.5,197.5C 26.8021,199.822 28.8021,201.155 31.5,201.5C 34.7876,204.641 38.7876,206.308 43.5,206.5C 44.1667,207.167 44.8333,207.833 45.5,208.5C 47.7554,210.38 50.4221,211.38 53.5,211.5C 56.6599,214 60.3266,215.333 64.5,215.5C 66.5093,217.065 68.8427,218.065 71.5,218.5C 71.8333,218.5 72.1667,218.5 72.5,218.5C 72.8417,219.338 73.5084,219.672 74.5,219.5C 76.22,220.864 78.22,221.864 80.5,222.5C 81.2975,222.957 81.6309,223.624 81.5,224.5C 80.5,224.5 79.5,224.5 78.5,224.5C 75.0534,224.186 71.7201,223.352 68.5,222C 65.1224,219.076 61.1224,217.909 56.5,218.5C 56.1667,218.5 55.8333,218.5 55.5,218.5C 55.6309,217.624 55.2975,216.957 54.5,216.5C 49.5243,214.588 44.8576,212.088 40.5,209C 40.8333,208.667 41.1667,208.333 41.5,208C 38.6492,206.711 35.6492,206.211 32.5,206.5C 31.2196,205.069 29.5529,204.402 27.5,204.5C 22.8033,202.822 18.8033,200.156 15.5,196.5C 14.8783,195.373 14.045,194.373 13,193.5C 12.9657,191.82 12.799,190.32 12.5,189C 15.4318,187.855 18.4318,187.022 21.5,186.5C 21.3764,188.952 20.3764,190.952 18.5,192.5C 18.5159,194.516 19.5159,195.516 21.5,195.5 Z"/></g>
<g><path style="opacity:1" fill="#645a52" d="M 340.5,216.5 C 336.607,220.108 331.941,222.108 326.5,222.5C 326.62,221.414 327.287,220.747 328.5,220.5C 332.636,219.343 336.636,218.01 340.5,216.5 Z"/></g>
<g><path style="opacity:1" fill="#6f5f59" d="M 105.5,219.5 C 110.048,221.369 114.382,223.703 118.5,226.5C 118.5,228.167 118.5,229.833 118.5,231.5C 115.612,232.01 113.279,231.344 111.5,229.5C 117.807,229.471 118.14,228.138 112.5,225.5C 109.609,224.211 107.275,222.211 105.5,219.5 Z"/></g>
<g><path style="opacity:1" fill="#4d3f38" d="M 74.5,219.5 C 79.3977,220.298 84.0644,221.631 88.5,223.5C 88.8333,223.5 89.1667,223.5 89.5,223.5C 90.5,224.167 91.5,224.833 92.5,225.5C 90.1667,225.5 87.8333,225.5 85.5,225.5C 84.4324,224.566 83.099,224.232 81.5,224.5C 81.6309,223.624 81.2975,222.957 80.5,222.5C 78.22,221.864 76.22,220.864 74.5,219.5 Z"/></g>
<g><path style="opacity:1" fill="#5e534b" d="M 325.5,222.5 C 321.105,224.453 316.439,225.786 311.5,226.5C 312.5,225.833 313.5,225.167 314.5,224.5C 318.136,223.674 321.803,223.008 325.5,222.5 Z"/></g>
<g><path style="opacity:1" fill="#d8c6ba" d="M 89.5,223.5 C 95.1445,224.127 100.811,224.627 106.5,225C 105.5,225.333 104.5,225.667 103.5,226C 105.649,226.579 107.815,227.079 110,227.5C 111.376,227.316 112.209,226.649 112.5,225.5C 118.14,228.138 117.807,229.471 111.5,229.5C 108.518,229.037 105.518,228.704 102.5,228.5C 102.5,228.167 102.5,227.833 102.5,227.5C 100.162,225.96 97.4951,225.294 94.5,225.5C 93.8333,225.5 93.1667,225.5 92.5,225.5C 91.5,224.833 90.5,224.167 89.5,223.5 Z"/></g>
<g><path style="opacity:1" fill="#8b7a71" d="M 297.5,223.5 C 295.966,225.369 293.966,226.702 291.5,227.5C 291.833,226.833 292.167,226.167 292.5,225.5C 294.05,224.559 295.716,223.893 297.5,223.5 Z"/></g>
<g><path style="opacity:1" fill="#dfccc1" d="M 303.5,219.5 C 303.833,219.5 304.167,219.5 304.5,219.5C 304.833,219.5 305.167,219.5 305.5,219.5C 304.524,220.815 303.524,222.148 302.5,223.5C 302.709,224.086 303.043,224.586 303.5,225C 307.17,225.279 310.837,225.112 314.5,224.5C 313.5,225.167 312.5,225.833 311.5,226.5C 311.167,226.5 310.833,226.5 310.5,226.5C 305.637,226.739 300.97,227.739 296.5,229.5C 294.219,229.923 292.552,229.256 291.5,227.5C 293.966,226.702 295.966,225.369 297.5,223.5C 300.198,223.155 302.198,221.822 303.5,219.5 Z"/></g>
<g><path style="opacity:1" fill="#8a7c76" d="M 94.5,225.5 C 97.4951,225.294 100.162,225.96 102.5,227.5C 99.5049,227.706 96.8383,227.04 94.5,225.5 Z"/></g>
<g><path style="opacity:1" fill="#211d1a" d="M 360.5,209.5 C 361.833,209.5 363.167,209.5 364.5,209.5C 362.856,210.924 361.356,212.591 360,214.5C 357.899,213.385 355.733,213.385 353.5,214.5C 342.88,219.363 332.546,224.363 322.5,229.5C 310.628,234.217 298.295,236.551 285.5,236.5C 282.167,235.167 278.833,235.167 275.5,236.5C 272.927,236.852 270.594,236.352 268.5,235C 274.702,232.534 281.036,230.534 287.5,229C 288.219,226.444 289.886,225.277 292.5,225.5C 292.167,226.167 291.833,226.833 291.5,227.5C 290.596,228.209 290.263,229.209 290.5,230.5C 292.628,231.629 294.961,231.796 297.5,231C 300.982,230.088 304.482,229.255 308,228.5C 309.376,228.316 310.209,227.649 310.5,226.5C 310.833,226.5 311.167,226.5 311.5,226.5C 316.439,225.786 321.105,224.453 325.5,222.5C 325.833,222.5 326.167,222.5 326.5,222.5C 331.941,222.108 336.607,220.108 340.5,216.5C 343.875,215.496 347.208,214.496 350.5,213.5C 353.313,213.975 355.313,212.975 356.5,210.5C 357.833,210.167 359.167,209.833 360.5,209.5 Z"/></g>
<g><path style="opacity:1" fill="#2c211c" d="M 85.5,225.5 C 87.8333,225.5 90.1667,225.5 92.5,225.5C 93.1667,225.5 93.8333,225.5 94.5,225.5C 96.8383,227.04 99.5049,227.706 102.5,227.5C 102.5,227.833 102.5,228.167 102.5,228.5C 96.4115,229.802 90.7448,228.802 85.5,225.5 Z"/></g>
<g><path style="opacity:1" fill="#3a1316" d="M 78.5,224.5 C 79.5,224.5 80.5,224.5 81.5,224.5C 83.099,224.232 84.4324,224.566 85.5,225.5C 90.7448,228.802 96.4115,229.802 102.5,228.5C 103.806,229.467 104.473,230.801 104.5,232.5C 107.69,232.559 110.857,232.893 114,233.5C 115.681,233.608 116.848,234.275 117.5,235.5C 106.862,234.042 96.5287,231.708 86.5,228.5C 83.8333,227.167 81.1667,225.833 78.5,224.5 Z"/></g>
<g><path style="opacity:1" fill="#8f857f" d="M 291.5,227.5 C 292.552,229.256 294.219,229.923 296.5,229.5C 294.735,230.461 292.735,230.795 290.5,230.5C 290.263,229.209 290.596,228.209 291.5,227.5 Z"/></g>
<g><path style="opacity:1" fill="#564b44" d="M 310.5,226.5 C 310.209,227.649 309.376,228.316 308,228.5C 304.482,229.255 300.982,230.088 297.5,231C 294.961,231.796 292.628,231.629 290.5,230.5C 292.735,230.795 294.735,230.461 296.5,229.5C 300.97,227.739 305.637,226.739 310.5,226.5 Z"/></g>
<g><path style="opacity:1" fill="#1f1d1b" d="M 118.5,226.5 C 120.042,227.301 121.708,227.634 123.5,227.5C 126.531,229.325 129.531,231.492 132.5,234C 134.5,234.333 136.5,234.667 138.5,235C 132.652,235.173 126.985,235.673 121.5,236.5C 119.901,236.768 118.568,236.434 117.5,235.5C 116.848,234.275 115.681,233.608 114,233.5C 110.857,232.893 107.69,232.559 104.5,232.5C 104.473,230.801 103.806,229.467 102.5,228.5C 105.518,228.704 108.518,229.037 111.5,229.5C 113.279,231.344 115.612,232.01 118.5,231.5C 118.5,229.833 118.5,228.167 118.5,226.5 Z"/></g>
<g><path style="opacity:1" fill="#2f1314" d="M 123.5,227.5 C 133.585,231.604 143.918,234.938 154.5,237.5C 153.223,238.898 151.557,239.564 149.5,239.5C 145.202,238.703 140.868,238.37 136.5,238.5C 135.833,238.5 135.167,238.5 134.5,238.5C 131.316,236.586 127.649,235.92 123.5,236.5C 122.833,236.5 122.167,236.5 121.5,236.5C 126.985,235.673 132.652,235.173 138.5,235C 136.5,234.667 134.5,234.333 132.5,234C 129.531,231.492 126.531,229.325 123.5,227.5 Z"/></g>
<g><path style="opacity:1" fill="#331315" d="M 295.5,220.5 C 294.241,221.979 293.241,223.646 292.5,225.5C 289.886,225.277 288.219,226.444 287.5,229C 281.036,230.534 274.702,232.534 268.5,235C 270.594,236.352 272.927,236.852 275.5,236.5C 270.089,238.147 264.423,239.147 258.5,239.5C 256.667,239.415 255.334,238.748 254.5,237.5C 269.163,233.954 282.83,228.287 295.5,220.5 Z"/></g>
<g><path style="opacity:1" fill="#580e1b" d="M 123.5,236.5 C 127.649,235.92 131.316,236.586 134.5,238.5C 130.64,238.192 126.974,237.525 123.5,236.5 Z"/></g>
<g><path style="opacity:0.734" fill="#560c18" d="M 285.5,236.5 C 270.637,239.4 255.637,241.4 240.5,242.5C 237.311,241.834 233.977,241.167 230.5,240.5C 230.709,239.914 231.043,239.414 231.5,239C 239.214,238.768 246.881,238.268 254.5,237.5C 255.334,238.748 256.667,239.415 258.5,239.5C 264.423,239.147 270.089,238.147 275.5,236.5C 278.833,235.167 282.167,235.167 285.5,236.5 Z"/></g>
<g><path style="opacity:1" fill="#580b17" d="M 154.5,237.5 C 162.119,238.268 169.786,238.768 177.5,239C 177.833,239.333 178.167,239.667 178.5,240C 177.244,240.417 176.577,241.25 176.5,242.5C 162.882,242.605 149.548,241.272 136.5,238.5C 140.868,238.37 145.202,238.703 149.5,239.5C 151.557,239.564 153.223,238.898 154.5,237.5 Z"/></g>
</svg>
