<?xml version="1.0" encoding="UTF-8"?>
<!DOCTYPE svg PUBLIC "-//W3C//DTD SVG 1.1//EN" "http://www.w3.org/Graphics/SVG/1.1/DTD/svg11.dtd">
<svg xmlns="http://www.w3.org/2000/svg" version="1.1" width="446px" height="193px" style="shape-rendering:geometricPrecision; text-rendering:geometricPrecision; image-rendering:optimizeQuality; fill-rule:evenodd; clip-rule:evenodd" xmlns:xlink="http://www.w3.org/1999/xlink">
<g><path style="opacity:1" fill="#1d2728" d="M 220.5,-0.5 C 224.833,-0.5 229.167,-0.5 233.5,-0.5C 243.028,3.01738 248.695,9.85071 250.5,20C 252.996,22.1163 255.663,22.6163 258.5,21.5C 258.5,22.5 258.5,23.5 258.5,24.5C 258.5,24.8333 258.5,25.1667 258.5,25.5C 257.5,25.5 256.5,25.5 255.5,25.5C 253.399,23.8911 251.065,23.3911 248.5,24C 245.992,33.0063 240.326,38.8396 231.5,41.5C 231.167,41.5 230.833,41.5 230.5,41.5C 230.167,41.5 229.833,41.5 229.5,41.5C 227.5,40.8333 225.5,40.1667 223.5,39.5C 243.144,38.8774 249.977,29.2107 244,10.5C 240.933,7.76255 237.599,5.42921 234,3.5C 233.5,3.83333 233,4.16667 232.5,4.5C 239.763,10.2713 241.263,17.2713 237,25.5C 229.983,32.3733 223.316,32.0399 217,24.5C 213.582,16.164 215.415,9.33066 222.5,4C 214.095,5.57418 209.095,10.7408 207.5,19.5C 205.824,21.8337 203.491,22.8337 200.5,22.5C 201.261,21.6091 202.261,20.9424 203.5,20.5C 205.198,10.1485 210.865,3.14847 220.5,-0.5 Z"/></g>
<g><path style="opacity:0.999" fill="#fa2950" d="M 231.5,41.5 C 240.326,38.8396 245.992,33.0063 248.5,24C 251.065,23.3911 253.399,23.8911 255.5,25.5C 255.202,28.2646 254.202,30.7646 252.5,33C 252.833,33.1667 253.167,33.3333 253.5,33.5C 255.178,30.8053 256.844,28.1386 258.5,25.5C 258.5,25.1667 258.5,24.8333 258.5,24.5C 261.964,21.5375 265.297,18.3709 268.5,15C 271.875,12.3136 275.541,10.1469 279.5,8.5C 280.932,8.73321 281.432,9.39988 281,10.5C 275.608,14.9884 271.442,20.3218 268.5,26.5C 267.094,26.9731 266.427,27.9731 266.5,29.5C 267.482,28.8592 268.482,28.1925 269.5,27.5C 270.17,29.2914 270.837,30.9581 271.5,32.5C 273.265,33.4614 275.265,33.7947 277.5,33.5C 277.249,37.3311 278.416,40.6644 281,43.5C 281.671,42.7476 282.504,42.4142 283.5,42.5C 283.5,43.1667 283.833,43.5 284.5,43.5C 287.294,47.4232 289.294,51.7566 290.5,56.5C 290.5,57.5 290.5,58.5 290.5,59.5C 286.864,60.3255 283.197,60.9922 279.5,61.5C 280.746,64.8372 281.579,68.1705 282,71.5C 275.228,78.1172 268.061,84.1172 260.5,89.5C 257.828,90.5014 255.162,91.5014 252.5,92.5C 247.614,93.8775 242.614,94.7108 237.5,95C 239.058,95.21 240.391,95.71 241.5,96.5C 233.202,97.2403 224.868,97.2403 216.5,96.5C 213.578,94.7719 210.245,93.7719 206.5,93.5C 202.035,92.5672 197.702,91.2339 193.5,89.5C 185.637,84.1476 178.47,77.8143 172,70.5C 173.409,68.0543 174.409,65.3876 175,62.5C 171.901,61.5447 168.734,60.7114 165.5,60C 164.663,58.9887 164.33,57.8221 164.5,56.5C 164.343,55.1266 164.51,53.7932 165,52.5C 166.856,49.4443 168.689,46.4443 170.5,43.5C 170.5,42.8333 170.833,42.5 171.5,42.5C 172.482,43.1408 173.482,43.8075 174.5,44.5C 175.65,41.2532 176.483,37.9199 177,34.5C 179,33.8333 181,33.1667 183,32.5C 183.495,30.5273 183.662,28.5273 183.5,26.5C 184.552,26.6495 185.552,26.4828 186.5,26C 182.713,20.544 178.546,15.3774 174,10.5C 173.409,9.51654 173.743,8.84987 175,8.5C 184.202,12.9398 191.869,19.2731 198,27.5C 199.851,24.1619 202.685,22.8285 206.5,23.5C 208.671,32.5059 214.171,38.5059 223,41.5C 223.168,49.4966 223.001,57.4966 222.5,65.5C 225.5,65.5 228.5,65.5 231.5,65.5C 231.5,57.5 231.5,49.5 231.5,41.5 Z"/></g>
<g><path style="opacity:1" fill="#06a5af" d="M 223.5,39.5 C 213.38,36.7086 208.046,30.0419 207.5,19.5C 209.095,10.7408 214.095,5.57418 222.5,4C 215.415,9.33066 213.582,16.164 217,24.5C 223.316,32.0399 229.983,32.3733 237,25.5C 241.263,17.2713 239.763,10.2713 232.5,4.5C 233,4.16667 233.5,3.83333 234,3.5C 237.599,5.42921 240.933,7.76255 244,10.5C 249.977,29.2107 243.144,38.8774 223.5,39.5 Z"/></g>
<g><path style="opacity:1" fill="#8fc6cb" d="M 225.5,4.5 C 234.514,6.4969 238.014,12.1636 236,21.5C 234.761,16.7643 231.927,13.431 227.5,11.5C 222.279,13.2565 219.446,16.9231 219,22.5C 217.443,19.7055 217.11,16.7055 218,13.5C 219.642,9.69966 222.142,6.69966 225.5,4.5 Z"/></g>
<g><path style="opacity:0.922" fill="#050203" d="M 164.5,49.5 C 163.787,53.9293 161.787,57.596 158.5,60.5C 159.171,54.3197 158.171,48.4864 155.5,43C 149.882,39.19 145.049,40.0233 141,45.5C 137.429,51.9704 134.429,58.6371 132,65.5C 129.676,57.1686 125.842,49.6686 120.5,43C 112.413,38.9608 107.58,41.4608 106,50.5C 105.612,58.1847 105.945,65.8514 107,73.5C 107.25,76.8502 108.083,80.0169 109.5,83C 112.5,85 115.5,85 118.5,83C 120.668,79.8259 122.168,76.3259 123,72.5C 124.955,74.9112 126.789,77.4112 128.5,80C 130.365,81.3014 132.365,81.6347 134.5,81C 137.361,78.106 139.861,74.9393 142,71.5C 141.98,75.7249 143.147,79.5582 145.5,83C 149.346,85.2608 152.68,84.7608 155.5,81.5C 156.167,80.8333 156.833,80.1667 157.5,79.5C 157.833,79.5 158.167,79.5 158.5,79.5C 158.721,81.6636 159.721,83.3303 161.5,84.5C 154.619,92.1039 147.286,92.4372 139.5,85.5C 134.384,88.4204 129.55,88.0871 125,84.5C 119.915,90.849 113.748,92.0157 106.5,88C 104.19,86.3626 102.69,84.196 102,81.5C 91.5139,91.9971 80.0139,93.1638 67.5,85C 64.8941,83.0616 63.0608,80.5616 62,77.5C 60.2908,69.5342 58.9575,61.5342 58,53.5C 55.5536,55.9586 53.0536,58.2919 50.5,60.5C 51.991,68.2923 51.491,75.959 49,83.5C 40.2366,91.8057 30.7366,92.639 20.5,86C 19.3333,84.1667 18.1667,82.3333 17,80.5C 15.8267,73.5629 15.16,66.5629 15,59.5C 7.79111,54.7951 2.62444,48.4617 -0.5,40.5C -0.5,35.8333 -0.5,31.1667 -0.5,26.5C 6.21822,14.8757 15.3849,12.5424 27,19.5C 29.5877,23.674 31.921,28.0074 34,32.5C 36.7976,27.7372 39.9643,23.2372 43.5,19C 50.1667,15.6667 56.8333,15.6667 63.5,19C 67.9996,23.1395 69.9996,28.3061 69.5,34.5C 74.6765,33.9437 79.5099,34.9437 84,37.5C 91.3207,31.9193 98.3207,32.2526 105,38.5C 117.795,32.0472 126.795,35.7139 132,49.5C 134.989,41.1011 140.822,36.1011 149.5,34.5C 158.224,35.8905 163.224,40.8905 164.5,49.5 Z"/></g>
<g><path style="opacity:1" fill="#e7d1c1" d="M 284.5,14.5 C 285.739,22.5453 285.406,30.5453 283.5,38.5C 284.978,38.238 286.311,38.5713 287.5,39.5C 286.479,40.9014 285.479,42.2347 284.5,43.5C 283.833,43.5 283.5,43.1667 283.5,42.5C 282.793,40.8656 281.627,39.5323 280,38.5C 279.503,36.1902 279.337,33.8568 279.5,31.5C 277.167,31.5 274.833,31.5 272.5,31.5C 271.824,22.8389 275.158,16.1723 282.5,11.5C 283.176,12.6016 283.842,13.6016 284.5,14.5 Z"/></g>
<g><path style="opacity:0.924" fill="#070304" d="M 445.5,46.5 C 445.5,55.8333 445.5,65.1667 445.5,74.5C 444.903,85.9303 438.903,91.097 427.5,90C 424.827,88.9986 422.493,87.4986 420.5,85.5C 415.863,88.0794 411.196,88.0794 406.5,85.5C 397.594,92.7752 389.761,91.7752 383,82.5C 369.76,93.6234 357.093,92.9567 345,80.5C 341.506,71.8759 339.84,62.8759 340,53.5C 337.743,55.0456 335.576,56.7123 333.5,58.5C 332.669,65.4764 332.169,72.4764 332,79.5C 330.421,85.4099 326.588,88.9099 320.5,90C 311.262,91.7591 303.928,88.9258 298.5,81.5C 300.424,79.305 302.091,76.9717 303.5,74.5C 305.075,82.7751 310.409,85.9418 319.5,84C 321.587,83.2078 323.421,82.0412 325,80.5C 326.273,72.2691 326.94,63.9358 327,55.5C 334.803,51.033 340.47,44.6996 344,36.5C 346.167,25.3333 341.667,20.8333 330.5,23C 329.069,23.4652 327.903,24.2986 327,25.5C 324.22,31.7716 320.053,36.7716 314.5,40.5C 313.558,40.3918 312.725,40.0585 312,39.5C 309.421,34.0082 306.588,28.6748 303.5,23.5C 297.949,20.4362 292.949,21.1028 288.5,25.5C 287.532,23.3926 287.198,21.0593 287.5,18.5C 301.923,12.2952 311.089,16.9618 315,32.5C 318.163,28.8441 320.829,24.8441 323,20.5C 329.341,16.2547 336.174,15.4214 343.5,18C 349.231,22.0203 351.565,27.5203 350.5,34.5C 356.001,33.6395 360.834,34.9729 365,38.5C 367.947,35.3401 371.614,33.6735 376,33.5C 379.871,34.2688 383.538,35.6021 387,37.5C 392.766,33.8407 398.599,33.6741 404.5,37C 408.454,40.1169 411.454,43.9503 413.5,48.5C 416.823,40.6749 422.657,36.0083 431,34.5C 438.788,35.1342 443.621,39.1342 445.5,46.5 Z"/></g>
<g><path style="opacity:1" fill="#ea7b92" d="M 12.5,21.5 C 15.6492,21.2114 18.6492,21.7114 21.5,23C 24.7142,27.9261 27.5475,33.0927 30,38.5C 33.6,41.354 36.6,40.6873 39,36.5C 41,33.1667 43,29.8333 45,26.5C 48.396,22.7973 52.5626,21.6306 57.5,23C 62.7315,25.6326 64.5649,29.7992 63,35.5C 59.8163,44.6845 53.8163,51.3512 45,55.5C 45.5053,62.4613 45.5053,69.4613 45,76.5C 42.1488,83.3584 36.9821,85.8584 29.5,84C 26.4173,83.214 24.2506,81.3807 23,78.5C 21.9747,70.8699 21.1414,63.2032 20.5,55.5C 8.5364,49.9072 3.70307,40.5739 6,27.5C 7.49363,24.6865 9.6603,22.6865 12.5,21.5 Z"/></g>
<g><path style="opacity:0.294" fill="#322423" d="M 200.5,22.5 C 203.491,22.8337 205.824,21.8337 207.5,19.5C 208.046,30.0419 213.38,36.7086 223.5,39.5C 225.5,40.1667 227.5,40.8333 229.5,41.5C 227.833,41.5 226.167,41.5 224.5,41.5C 224.5,49.1667 224.5,56.8333 224.5,64.5C 226.415,64.7845 228.081,64.4511 229.5,63.5C 230.492,56.3524 230.825,49.0191 230.5,41.5C 230.833,41.5 231.167,41.5 231.5,41.5C 231.5,49.5 231.5,57.5 231.5,65.5C 228.5,65.5 225.5,65.5 222.5,65.5C 223.001,57.4966 223.168,49.4966 223,41.5C 214.171,38.5059 208.671,32.5059 206.5,23.5C 202.685,22.8285 199.851,24.1619 198,27.5C 191.869,19.2731 184.202,12.9398 175,8.5C 173.743,8.84987 173.409,9.51654 174,10.5C 178.546,15.3774 182.713,20.544 186.5,26C 185.552,26.4828 184.552,26.6495 183.5,26.5C 183.662,28.5273 183.495,30.5273 183,32.5C 181,33.1667 179,33.8333 177,34.5C 176.483,37.9199 175.65,41.2532 174.5,44.5C 173.482,43.8075 172.482,43.1408 171.5,42.5C 171.75,41.0779 172.583,40.0779 174,39.5C 174.497,36.854 174.664,34.1873 174.5,31.5C 176.833,31.5 179.167,31.5 181.5,31.5C 181.665,27.8183 181.499,24.1516 181,20.5C 177.958,17.2894 174.791,14.2894 171.5,11.5C 170.02,15.1659 169.353,18.9992 169.5,23C 169.606,28.2523 170.273,33.419 171.5,38.5C 170.167,38.5 168.833,38.5 167.5,38.5C 167.273,40.9328 168.273,42.5994 170.5,43.5C 168.689,46.4443 166.856,49.4443 165,52.5C 164.51,53.7932 164.343,55.1266 164.5,56.5C 163.566,57.5676 163.232,58.901 163.5,60.5C 159.191,62.3204 155.191,64.6537 151.5,67.5C 153.791,69.1234 155.791,70.9567 157.5,73C 156.491,74.1681 155.491,75.3348 154.5,76.5C 155.77,77.2876 156.77,78.2876 157.5,79.5C 156.833,80.1667 156.167,80.8333 155.5,81.5C 154.7,79.3175 153.2,77.6508 151,76.5C 150.517,75.552 150.351,74.552 150.5,73.5C 151.978,73.762 153.311,73.4287 154.5,72.5C 152.5,71.1667 150.5,69.8333 148.5,68.5C 147.571,67.3112 147.238,65.9778 147.5,64.5C 151.673,64.3333 155.34,63 158.5,60.5C 161.787,57.596 163.787,53.9293 164.5,49.5C 164.92,47.9064 165.586,46.4064 166.5,45C 164.513,42.5237 163.513,39.6903 163.5,36.5C 165.308,36.5086 166.975,36.0086 168.5,35C 165.819,25.8393 165.986,16.6726 169,7.5C 169.777,5.78521 171.11,4.78521 173,4.5C 183.044,8.53882 191.377,14.8722 198,23.5C 198.671,22.7476 199.504,22.4142 200.5,22.5 Z"/></g>
<g><path style="opacity:1" fill="#ead4c4" d="M 171.5,42.5 C 170.833,42.5 170.5,42.8333 170.5,43.5C 168.273,42.5994 167.273,40.9328 167.5,38.5C 168.833,38.5 170.167,38.5 171.5,38.5C 170.273,33.419 169.606,28.2523 169.5,23C 169.353,18.9992 170.02,15.1659 171.5,11.5C 174.791,14.2894 177.958,17.2894 181,20.5C 181.499,24.1516 181.665,27.8183 181.5,31.5C 179.167,31.5 176.833,31.5 174.5,31.5C 174.664,34.1873 174.497,36.854 174,39.5C 172.583,40.0779 171.75,41.0779 171.5,42.5 Z"/></g>
<g><path style="opacity:1" fill="#ea7c92" d="M 303.5,74.5 C 303.461,71.1903 304.794,68.5237 307.5,66.5C 306.68,64.8888 305.346,64.2222 303.5,64.5C 303.5,62.8333 303.5,61.1667 303.5,59.5C 303.5,58.1667 303.5,56.8333 303.5,55.5C 295.609,53.6114 290.942,48.9447 289.5,41.5C 291.953,44.2413 294.286,47.0746 296.5,50C 297.944,50.7805 299.277,50.6139 300.5,49.5C 293.923,44.0141 290.923,37.0141 291.5,28.5C 290.5,28.5 289.5,28.5 288.5,28.5C 288.813,31.2469 288.48,33.9135 287.5,36.5C 286.235,32.6866 286.569,29.02 288.5,25.5C 292.949,21.1028 297.949,20.4362 303.5,23.5C 306.588,28.6748 309.421,34.0082 312,39.5C 312.725,40.0585 313.558,40.3918 314.5,40.5C 320.053,36.7716 324.22,31.7716 327,25.5C 327.903,24.2986 329.069,23.4652 330.5,23C 341.667,20.8333 346.167,25.3333 344,36.5C 340.47,44.6996 334.803,51.033 327,55.5C 326.94,63.9358 326.273,72.2691 325,80.5C 323.421,82.0412 321.587,83.2078 319.5,84C 310.409,85.9418 305.075,82.7751 303.5,74.5 Z"/></g>
<g><path style="opacity:1" fill="#6ac0c5" d="M 225.5,14.5 C 231.795,14.9836 233.961,18.3169 232,24.5C 224.478,28.3249 221.478,25.9916 223,17.5C 224.045,16.6266 224.878,15.6266 225.5,14.5 Z"/></g>
<g><path style="opacity:1" fill="#27171a" d="M 11.5,23.5 C 12.9953,23.4148 13.9953,24.0815 14.5,25.5C 13.1667,26.8333 11.8333,26.8333 10.5,25.5C 10.8627,24.8165 11.1961,24.1499 11.5,23.5 Z"/></g>
<g><path style="opacity:1" fill="#120a0b" d="M 49.5,24.5 C 50.5,24.5 51.5,24.5 52.5,24.5C 50.7763,27.5933 48.7763,30.5933 46.5,33.5C 44.9878,29.6739 45.9878,26.6739 49.5,24.5 Z"/></g>
<g><path style="opacity:1" fill="#382121" d="M 276.5,6.5 C 278.265,7.46138 280.265,7.79472 282.5,7.5C 283.449,9.73729 284.116,12.0706 284.5,14.5C 283.842,13.6016 283.176,12.6016 282.5,11.5C 275.158,16.1723 271.824,22.8389 272.5,31.5C 274.833,31.5 277.167,31.5 279.5,31.5C 279.337,33.8568 279.503,36.1902 280,38.5C 281.627,39.5323 282.793,40.8656 283.5,42.5C 282.504,42.4142 281.671,42.7476 281,43.5C 278.416,40.6644 277.249,37.3311 277.5,33.5C 275.265,33.7947 273.265,33.4614 271.5,32.5C 271.5,30.5 271.5,28.5 271.5,26.5C 270.5,26.5 269.5,26.5 268.5,26.5C 271.442,20.3218 275.608,14.9884 281,10.5C 281.432,9.39988 280.932,8.73321 279.5,8.5C 275.541,10.1469 271.875,12.3136 268.5,15C 265.297,18.3709 261.964,21.5375 258.5,24.5C 258.5,23.5 258.5,22.5 258.5,21.5C 263.891,15.7763 269.891,10.7763 276.5,6.5 Z"/></g>
<g><path style="opacity:1" fill="#160d0e" d="M 292.5,23.5 C 293.5,23.5 294.5,23.5 295.5,23.5C 295.5,24.5 295.5,25.5 295.5,26.5C 294.5,26.5 293.5,26.5 292.5,26.5C 292.5,25.5 292.5,24.5 292.5,23.5 Z"/></g>
<g><path style="opacity:1" fill="#150b0d" d="M 330.5,24.5 C 331.978,24.238 333.311,24.5713 334.5,25.5C 332.115,27.8838 330.115,30.5505 328.5,33.5C 327.28,33.1131 326.613,32.2798 326.5,31C 327.713,28.7381 329.046,26.5715 330.5,24.5 Z"/></g>
<g><path style="opacity:1" fill="#a41b33" d="M 268.5,26.5 C 269.5,26.5 270.5,26.5 271.5,26.5C 271.5,28.5 271.5,30.5 271.5,32.5C 270.837,30.9581 270.17,29.2914 269.5,27.5C 268.482,28.1925 267.482,28.8592 266.5,29.5C 266.427,27.9731 267.094,26.9731 268.5,26.5 Z"/></g>
<g><path style="opacity:1" fill="#190f10" d="M 7.5,28.5 C 8.5,28.5 9.5,28.5 10.5,28.5C 9.38982,36.3489 11.8898,42.6822 18,47.5C 18.4828,48.448 18.6495,49.448 18.5,50.5C 12.1172,48.1383 8.28383,43.4717 7,36.5C 6.27817,33.7395 6.44484,31.0728 7.5,28.5 Z"/></g>
<g><path style="opacity:1" fill="#851625" d="M 255.5,25.5 C 256.5,25.5 257.5,25.5 258.5,25.5C 256.844,28.1386 255.178,30.8053 253.5,33.5C 253.167,33.3333 252.833,33.1667 252.5,33C 254.202,30.7646 255.202,28.2646 255.5,25.5 Z"/></g>
<g><path style="opacity:1" fill="#7d1224" d="M 266.5,29.5 C 266.539,30.7562 266.039,31.7562 265,32.5C 264.415,31.0024 264.915,30.0024 266.5,29.5 Z"/></g>
<g><path style="opacity:1" fill="#1c1717" d="M 287.5,18.5 C 287.198,21.0593 287.532,23.3926 288.5,25.5C 286.569,29.02 286.235,32.6866 287.5,36.5C 288.48,33.9135 288.813,31.2469 288.5,28.5C 289.5,28.5 290.5,28.5 291.5,28.5C 290.923,37.0141 293.923,44.0141 300.5,49.5C 299.277,50.6139 297.944,50.7805 296.5,50C 294.286,47.0746 291.953,44.2413 289.5,41.5C 290.942,48.9447 295.609,53.6114 303.5,55.5C 303.5,56.8333 303.5,58.1667 303.5,59.5C 302.549,60.9187 302.216,62.5853 302.5,64.5C 299.656,64.6574 297.989,63.324 297.5,60.5C 297.167,59.1667 296.833,59.1667 296.5,60.5C 295.5,60.5 294.5,60.5 293.5,60.5C 292.833,60.5 292.167,60.5 291.5,60.5C 291.768,58.901 291.434,57.5676 290.5,56.5C 289.294,51.7566 287.294,47.4232 284.5,43.5C 285.479,42.2347 286.479,40.9014 287.5,39.5C 286.311,38.5713 284.978,38.238 283.5,38.5C 285.406,30.5453 285.739,22.5453 284.5,14.5C 284.116,12.0706 283.449,9.73729 282.5,7.5C 280.265,7.79472 278.265,7.46138 276.5,6.5C 278.305,5.76294 279.971,4.76294 281.5,3.5C 285.826,7.46145 287.826,12.4614 287.5,18.5 Z"/></g>
<g><path style="opacity:1" fill="#e77a90" d="M 92.5,39.5 C 96.815,39.3185 99.815,41.1518 101.5,45C 100.708,53.7984 100.208,62.6317 100,71.5C 96.4798,81.6836 89.3132,85.8503 78.5,84C 70.5489,81.3806 66.3823,75.8806 66,67.5C 65.3333,59.8333 65.3333,52.1667 66,44.5C 69.7463,40.1536 74.0796,39.4869 79,42.5C 79.9847,44.3659 80.4847,46.3659 80.5,48.5C 79.0044,55.5505 79.1711,62.5505 81,69.5C 83.2672,70.9348 85.2672,70.6015 87,68.5C 87.3333,59.8333 87.6667,51.1667 88,42.5C 89.6516,41.6006 91.1516,40.6006 92.5,39.5 Z"/></g>
<g><path style="opacity:1" fill="#ea7b92" d="M 348.5,71.5 C 348.328,70.5084 348.662,69.8417 349.5,69.5C 350.368,71.6246 351.368,71.7913 352.5,70C 350.695,63.3058 350.029,56.4724 350.5,49.5C 349.791,48.596 348.791,48.2627 347.5,48.5C 347.5,47.5 347.5,46.5 347.5,45.5C 347.916,43.2475 349.249,41.7475 351.5,41C 355.274,39.8175 358.441,40.6508 361,43.5C 360.94,50.4971 360.94,57.4971 361,64.5C 360.834,67.8257 362.334,69.8257 365.5,70.5C 367.425,70.4096 368.592,69.4096 369,67.5C 369.331,59.4845 369.331,51.4845 369,43.5C 372.257,40.5715 376.091,39.7382 380.5,41C 381.894,41.956 382.561,43.2894 382.5,45C 381.732,54.477 381.232,63.977 381,73.5C 375.998,83.5036 368.165,86.6703 357.5,83C 352.466,80.768 349.466,76.9346 348.5,71.5 Z"/></g>
<g><path style="opacity:1" fill="#e77a90" d="M 158.5,60.5 C 155.34,63 151.673,64.3333 147.5,64.5C 147.238,65.9778 147.571,67.3112 148.5,68.5C 150.5,69.8333 152.5,71.1667 154.5,72.5C 153.311,73.4287 151.978,73.762 150.5,73.5C 150.351,74.552 150.517,75.552 151,76.5C 153.2,77.6508 154.7,79.3175 155.5,81.5C 152.68,84.7608 149.346,85.2608 145.5,83C 143.147,79.5582 141.98,75.7249 142,71.5C 139.861,74.9393 137.361,78.106 134.5,81C 132.365,81.6347 130.365,81.3014 128.5,80C 126.789,77.4112 124.955,74.9112 123,72.5C 122.168,76.3259 120.668,79.8259 118.5,83C 115.5,85 112.5,85 109.5,83C 108.083,80.0169 107.25,76.8502 107,73.5C 105.945,65.8514 105.612,58.1847 106,50.5C 107.58,41.4608 112.413,38.9608 120.5,43C 125.842,49.6686 129.676,57.1686 132,65.5C 134.429,58.6371 137.429,51.9704 141,45.5C 145.049,40.0233 149.882,39.19 155.5,43C 158.171,48.4864 159.171,54.3197 158.5,60.5 Z"/></g>
<g><path style="opacity:1" fill="#e97b91" d="M 387.5,50.5 C 388.167,54.5 388.833,58.5 389.5,62.5C 389.192,64.924 389.526,67.2573 390.5,69.5C 391.197,61.7771 391.864,54.1105 392.5,46.5C 394.728,45.6782 395.395,44.3448 394.5,42.5C 393.099,43.5207 391.765,44.5207 390.5,45.5C 389.766,46.7079 389.433,48.0413 389.5,49.5C 388.596,48.791 388.263,47.791 388.5,46.5C 391.696,40.0339 396.363,38.8672 402.5,43C 403.787,44.4095 404.954,45.9095 406,47.5C 408.675,53.5344 411.341,59.5344 414,65.5C 416.082,58.9223 418.748,52.589 422,46.5C 427.852,38.5769 433.519,38.5769 439,46.5C 439.879,57.5503 439.546,68.5503 438,79.5C 433.667,86.1667 429.333,86.1667 425,79.5C 424.333,76.8333 423.667,74.1667 423,71.5C 416.78,84.7963 410.446,84.7963 404,71.5C 404.092,76.5724 402.258,80.7391 398.5,84C 391.173,84.6749 387.673,81.1749 388,73.5C 387.5,65.8406 387.334,58.1739 387.5,50.5 Z"/></g>
<g><path style="opacity:1" fill="#11080a" d="M 89.5,42.5 C 90.7868,43.8714 91.4535,45.7047 91.5,48C 91.1667,49.8333 90.8333,51.6667 90.5,53.5C 89.5108,49.8927 89.1774,46.226 89.5,42.5 Z"/></g>
<g><path style="opacity:1" fill="#150c0d" d="M 371.5,42.5 C 372.239,42.369 372.906,42.5357 373.5,43C 372.167,46 372.167,49 373.5,52C 373,52.5 372.5,53 372,53.5C 370.181,49.941 370.014,46.2744 371.5,42.5 Z"/></g>
<g><path style="opacity:1" fill="#1f1315" d="M 427.5,42.5 C 428.675,42.281 429.675,42.6143 430.5,43.5C 428.5,45.1667 426.5,46.8333 424.5,48.5C 424.167,48.1667 423.833,47.8333 423.5,47.5C 424.857,45.8144 426.19,44.1477 427.5,42.5 Z"/></g>
<g><path style="opacity:1" fill="#160c0d" d="M 111.5,42.5 C 113.337,42.6395 113.67,43.3061 112.5,44.5C 111.702,44.0431 111.369,43.3764 111.5,42.5 Z"/></g>
<g><path style="opacity:1" fill="#170d0f" d="M 146.5,42.5 C 147.376,42.3691 148.043,42.7025 148.5,43.5C 146.5,44.8333 144.833,46.5 143.5,48.5C 142.417,47.635 142.251,46.635 143,45.5C 144.145,44.3636 145.312,43.3636 146.5,42.5 Z"/></g>
<g><path style="opacity:1" fill="#897b73" d="M 229.5,41.5 C 229.833,41.5 230.167,41.5 230.5,41.5C 230.825,49.0191 230.492,56.3524 229.5,63.5C 228.081,64.4511 226.415,64.7845 224.5,64.5C 224.5,56.8333 224.5,49.1667 224.5,41.5C 226.167,41.5 227.833,41.5 229.5,41.5 Z"/></g>
<g><path style="opacity:1" fill="#f8e1cf" d="M 229.5,63.5 C 228.167,63.5 226.833,63.5 225.5,63.5C 225.5,56.5 225.5,49.5 225.5,42.5C 226.833,42.5 228.167,42.5 229.5,42.5C 229.5,49.5 229.5,56.5 229.5,63.5 Z"/></g>
<g><path style="opacity:1" fill="#331d21" d="M 67.5,44.5 C 69.337,44.6395 69.6704,45.3061 68.5,46.5C 67.7025,46.0431 67.3691,45.3764 67.5,44.5 Z"/></g>
<g><path style="opacity:1" fill="#100809" d="M 109.5,44.5 C 109.601,52.74 109.601,61.0733 109.5,69.5C 106.837,61.1366 106.837,52.8033 109.5,44.5 Z"/></g>
<g><path style="opacity:1" fill="#170d0f" d="M 390.5,45.5 C 391.492,45.3284 392.158,45.6618 392.5,46.5C 391.864,54.1105 391.197,61.7771 390.5,69.5C 389.526,67.2573 389.192,64.924 389.5,62.5C 389.5,58.1667 389.5,53.8333 389.5,49.5C 389.433,48.0413 389.766,46.7079 390.5,45.5 Z"/></g>
<g><path style="opacity:1" fill="#814551" d="M 392.5,46.5 C 392.158,45.6618 391.492,45.3284 390.5,45.5C 391.765,44.5207 393.099,43.5207 394.5,42.5C 395.395,44.3448 394.728,45.6782 392.5,46.5 Z"/></g>
<g><path style="opacity:1" fill="#231618" d="M 66.5,48.5 C 67.4959,48.4142 68.3292,48.7476 69,49.5C 69.2422,56.1958 69.7422,62.8625 70.5,69.5C 70.1758,71.5689 69.3425,71.9023 68,70.5C 67.0578,63.1937 66.5578,55.8604 66.5,48.5 Z"/></g>
<g><path style="opacity:1" fill="#130a0c" d="M 350.5,49.5 C 350.029,56.4724 350.695,63.3058 352.5,70C 351.368,71.7913 350.368,71.6246 349.5,69.5C 349.001,65.5248 348.668,61.5248 348.5,57.5C 348.522,54.4098 349.188,51.7432 350.5,49.5 Z"/></g>
<g><path style="opacity:1" fill="#231819" d="M 186.5,51.5 C 192.838,52.2008 199.171,53.0342 205.5,54C 209.785,55.4475 212.452,58.2808 213.5,62.5C 204.769,61.3116 196.435,58.8116 188.5,55C 187.177,54.1841 186.511,53.0174 186.5,51.5 Z"/></g>
<g><path style="opacity:1" fill="#64353e" d="M 388.5,46.5 C 388.263,47.791 388.596,48.791 389.5,49.5C 389.5,53.8333 389.5,58.1667 389.5,62.5C 388.833,58.5 388.167,54.5 387.5,50.5C 387.232,48.901 387.566,47.5676 388.5,46.5 Z"/></g>
<g><path style="opacity:1" fill="#211818" d="M 264.5,51.5 C 265.978,51.238 267.311,51.5713 268.5,52.5C 266.163,55.3217 263.163,57.1551 259.5,58C 254.535,59.3247 249.535,60.4913 244.5,61.5C 241.075,61.0307 240.742,59.5307 243.5,57C 245.167,56 246.833,55 248.5,54C 253.956,53.0553 259.289,52.222 264.5,51.5 Z"/></g>
<g><path style="opacity:1" fill="#9d5362" d="M 347.5,45.5 C 347.5,46.5 347.5,47.5 347.5,48.5C 348.791,48.2627 349.791,48.596 350.5,49.5C 349.188,51.7432 348.522,54.4098 348.5,57.5C 348.668,61.5248 349.001,65.5248 349.5,69.5C 348.662,69.8417 348.328,70.5084 348.5,71.5C 346.993,66.5873 346.326,61.4207 346.5,56C 346.501,52.3167 346.835,48.8167 347.5,45.5 Z"/></g>
<g><path style="opacity:1" fill="#efd7c7" d="M 163.5,60.5 C 166.582,62.181 169.915,62.8476 173.5,62.5C 173.227,65.282 171.894,67.4487 169.5,69C 175.573,77.0741 182.907,83.7408 191.5,89C 192.252,89.6708 192.586,90.5041 192.5,91.5C 180.481,89.2726 169.148,85.2726 158.5,79.5C 158.167,79.5 157.833,79.5 157.5,79.5C 156.77,78.2876 155.77,77.2876 154.5,76.5C 155.491,75.3348 156.491,74.1681 157.5,73C 155.791,70.9567 153.791,69.1234 151.5,67.5C 155.191,64.6537 159.191,62.3204 163.5,60.5 Z"/></g>
<g><path style="opacity:1" fill="#f2dac9" d="M 291.5,60.5 C 292.167,60.5 292.833,60.5 293.5,60.5C 293.369,61.3764 293.702,62.0431 294.5,62.5C 297.519,64.3145 300.519,65.9812 303.5,67.5C 300.772,68.86 298.439,70.6934 296.5,73C 297.509,74.1681 298.509,75.3348 299.5,76.5C 292.168,81.5643 284.168,85.3977 275.5,88C 271.222,88.7591 267.056,89.9258 263,91.5C 261.97,91.1639 261.47,90.4972 261.5,89.5C 270.597,84.9204 278.43,78.5871 285,70.5C 283.724,68.0011 282.558,65.3344 281.5,62.5C 284.877,62.0405 288.211,61.3739 291.5,60.5 Z"/></g>
<g><path style="opacity:1" fill="#542e2c" d="M 164.5,56.5 C 164.33,57.8221 164.663,58.9887 165.5,60C 168.734,60.7114 171.901,61.5447 175,62.5C 174.409,65.3876 173.409,68.0543 172,70.5C 178.47,77.8143 185.637,84.1476 193.5,89.5C 193.672,90.4916 193.338,91.1583 192.5,91.5C 192.586,90.5041 192.252,89.6708 191.5,89C 182.907,83.7408 175.573,77.0741 169.5,69C 171.894,67.4487 173.227,65.282 173.5,62.5C 169.915,62.8476 166.582,62.181 163.5,60.5C 163.232,58.901 163.566,57.5676 164.5,56.5 Z"/></g>
<g><path style="opacity:1" fill="#452525" d="M 222.5,69.5 C 233.246,67.8383 234.912,70.5049 227.5,77.5C 224.807,75.4408 223.14,72.7741 222.5,69.5 Z"/></g>
<g><path style="opacity:1" fill="#ddcabf" d="M 225.5,71.5 C 226.978,71.238 228.311,71.5713 229.5,72.5C 227.537,75.1939 226.203,74.8606 225.5,71.5 Z"/></g>
<g><path style="opacity:1" fill="#57332f" d="M 290.5,56.5 C 291.434,57.5676 291.768,58.901 291.5,60.5C 288.211,61.3739 284.877,62.0405 281.5,62.5C 282.558,65.3344 283.724,68.0011 285,70.5C 278.43,78.5871 270.597,84.9204 261.5,89.5C 261.167,89.5 260.833,89.5 260.5,89.5C 268.061,84.1172 275.228,78.1172 282,71.5C 281.579,68.1705 280.746,64.8372 279.5,61.5C 283.197,60.9922 286.864,60.3255 290.5,59.5C 290.5,58.5 290.5,57.5 290.5,56.5 Z"/></g>
<g><path style="opacity:0.949" fill="#381d1d" d="M 158.5,79.5 C 169.148,85.2726 180.481,89.2726 192.5,91.5C 193.338,91.1583 193.672,90.4916 193.5,89.5C 197.702,91.2339 202.035,92.5672 206.5,93.5C 204.735,94.4614 202.735,94.7947 200.5,94.5C 186.97,93.201 173.97,89.8676 161.5,84.5C 159.721,83.3303 158.721,81.6636 158.5,79.5 Z"/></g>
<g><path style="opacity:0.929" fill="#2c2625" d="M 303.5,59.5 C 303.5,61.1667 303.5,62.8333 303.5,64.5C 305.346,64.2222 306.68,64.8888 307.5,66.5C 304.794,68.5237 303.461,71.1903 303.5,74.5C 302.091,76.9717 300.424,79.305 298.5,81.5C 286.118,88.599 272.785,92.9324 258.5,94.5C 256.777,93.193 254.943,93.193 253,94.5C 252.536,93.9056 252.369,93.2389 252.5,92.5C 255.162,91.5014 257.828,90.5014 260.5,89.5C 260.833,89.5 261.167,89.5 261.5,89.5C 261.47,90.4972 261.97,91.1639 263,91.5C 267.056,89.9258 271.222,88.7591 275.5,88C 284.168,85.3977 292.168,81.5643 299.5,76.5C 298.509,75.3348 297.509,74.1681 296.5,73C 298.439,70.6934 300.772,68.86 303.5,67.5C 300.519,65.9812 297.519,64.3145 294.5,62.5C 293.702,62.0431 293.369,61.3764 293.5,60.5C 294.5,60.5 295.5,60.5 296.5,60.5C 296.833,60.5 297.167,60.5 297.5,60.5C 297.989,63.324 299.656,64.6574 302.5,64.5C 302.216,62.5853 302.549,60.9187 303.5,59.5 Z"/></g>
<g><path style="opacity:0.833" fill="#5a0e1a" d="M 206.5,93.5 C 210.245,93.7719 213.578,94.7719 216.5,96.5C 210.916,96.7451 205.583,96.0784 200.5,94.5C 202.735,94.7947 204.735,94.4614 206.5,93.5 Z"/></g>
<g><path style="opacity:0.173" fill="#4f0e18" d="M 252.5,92.5 C 252.369,93.2389 252.536,93.9056 253,94.5C 254.943,93.193 256.777,93.193 258.5,94.5C 252.875,95.493 247.208,96.1596 241.5,96.5C 240.391,95.71 239.058,95.21 237.5,95C 242.614,94.7108 247.614,93.8775 252.5,92.5 Z"/></g>
<g><path style="opacity:0.923" fill="#060303" d="M 298.5,192.5 C 296.167,192.5 293.833,192.5 291.5,192.5C 284.48,190.475 280.146,185.808 278.5,178.5C 272.128,175.71 268.628,177.71 268,184.5C 266.859,186.609 265.359,188.442 263.5,190C 243.327,194.332 234.327,186.165 236.5,165.5C 230.898,168.756 224.898,170.923 218.5,172C 215.222,187.963 205.889,193.63 190.5,189C 188.714,188.215 187.214,187.049 186,185.5C 182.775,189.021 178.942,191.354 174.5,192.5C 172.167,192.5 169.833,192.5 167.5,192.5C 160.011,190.338 155.678,185.338 154.5,177.5C 151.5,177.5 148.5,177.5 145.5,177.5C 144.906,187.261 139.74,191.928 130,191.5C 120.858,191.69 115.191,187.356 113,178.5C 105.404,187.369 95.7373,191.369 84,190.5C 73.9614,191.268 65.628,187.935 59,180.5C 54.01,168.469 57.1766,159.302 68.5,153C 72.7097,152.262 76.8764,152.428 81,153.5C 81.9454,153.095 82.6121,152.428 83,151.5C 82.7256,144.018 82.2256,136.518 81.5,129C 81.2386,109.583 90.5719,101.25 109.5,104C 116.113,107.042 119.946,112.209 121,119.5C 121.521,124.852 122.187,130.185 123,135.5C 125.137,129.421 127.471,123.421 130,117.5C 138.209,103.773 149.376,100.607 163.5,108C 165.709,109.873 167.542,112.04 169,114.5C 173.255,123.596 176.921,132.929 180,142.5C 173.985,115.042 184.818,101.708 212.5,102.5C 225.55,101.463 236.383,105.796 245,115.5C 247.219,119.271 248.885,123.271 250,127.5C 252.434,120.126 256.267,113.626 261.5,108C 272.925,101.22 283.091,102.72 292,112.5C 296.828,121.824 300.828,131.49 304,141.5C 304.143,133.771 304.81,126.105 306,118.5C 310.666,105.917 319.499,101.417 332.5,105C 339.386,108.886 344.553,114.386 348,121.5C 353.04,106.064 363.207,100.897 378.5,106C 382.894,109.068 385.728,113.235 387,118.5C 388.943,137.199 388.61,155.865 386,174.5C 382.927,186.908 375.094,192.075 362.5,190C 354.658,187.245 347.991,182.745 342.5,176.5C 338.772,186.864 331.439,191.364 320.5,190C 316.717,188.942 313.383,187.109 310.5,184.5C 307.423,188.695 303.423,191.361 298.5,192.5 Z"/></g>
<g><path style="opacity:1" fill="#ea7c92" d="M 202.5,108.5 C 213.233,107.501 223.566,109.001 233.5,113C 242.405,119.995 245.905,129.162 244,140.5C 240.758,157.903 230.258,166.237 212.5,165.5C 212.278,171.452 210.611,176.952 207.5,182C 200.556,185.972 194.389,185.138 189,179.5C 187.345,159.205 186.678,138.872 187,118.5C 187.786,115.417 189.619,113.251 192.5,112C 195.85,110.514 199.184,109.347 202.5,108.5 Z"/></g>
<g><path style="opacity:1" fill="#ea7b92" d="M 100.5,108.5 C 108.179,108.422 113.013,112.089 115,119.5C 117.096,135.686 116.096,151.686 112,167.5C 106.575,180.472 96.7417,186.138 82.5,184.5C 74.9202,184.957 68.7535,182.29 64,176.5C 60.824,169.033 62.6574,163.2 69.5,159C 74.8241,159.146 80.1574,159.146 85.5,159C 88.8858,156.131 90.2191,152.464 89.5,148C 87.8487,139.23 87.3487,130.397 88,121.5C 89.7182,114.618 93.8848,110.285 100.5,108.5 Z"/></g>
<g><path style="opacity:1" fill="#eb7c92" d="M 144.5,110.5 C 151.956,108.943 158.123,110.943 163,116.5C 170.582,132.579 176.582,149.246 181,166.5C 181.667,171.167 181.667,175.833 181,180.5C 176.777,186.658 171.277,187.992 164.5,184.5C 161.464,180.73 159.797,176.397 159.5,171.5C 153.167,171.5 146.833,171.5 140.5,171.5C 141.036,183.138 135.703,187.638 124.5,185C 120.332,182.348 118.332,178.514 118.5,173.5C 122.565,154.137 128.732,135.47 137,117.5C 139.396,114.933 141.896,112.6 144.5,110.5 Z"/></g>
<g><path style="opacity:1" fill="#eb7c93" d="M 268.5,110.5 C 278.769,108.217 285.936,111.884 290,121.5C 297.411,138.567 302.911,156.233 306.5,174.5C 305.246,185.128 299.579,188.628 289.5,185C 286.091,181.586 284.091,177.419 283.5,172.5C 277.5,171.167 271.5,171.167 265.5,172.5C 264.366,175.07 263.532,177.736 263,180.5C 262.426,182.492 261.259,183.992 259.5,185C 247.734,187.232 242.234,182.398 243,170.5C 247.569,151.787 253.903,133.787 262,116.5C 264.063,114.266 266.229,112.266 268.5,110.5 Z"/></g>
<g><path style="opacity:1" fill="#eb7c93" d="M 321.5,109.5 C 327.069,109.035 331.903,110.701 336,114.5C 342.169,123.5 347.836,132.834 353,142.5C 353.333,136.5 353.667,130.5 354,124.5C 356.253,112.801 363.087,108.301 374.5,111C 379.634,114.359 382.134,119.192 382,125.5C 382.917,141.236 382.251,156.902 380,172.5C 377.484,183.131 370.984,186.631 360.5,183C 351.62,177.121 344.454,169.621 339,160.5C 338.107,165.523 337.107,170.523 336,175.5C 331.533,184.766 324.866,186.766 316,181.5C 313.685,178.223 312.351,174.556 312,170.5C 310.786,154.847 310.453,139.181 311,123.5C 312.085,116.928 315.585,112.261 321.5,109.5 Z"/></g>
<g><path style="opacity:1" fill="#1e1214" d="M 97.5,112.5 C 99.9118,112.694 100.912,114.027 100.5,116.5C 99.1667,116.5 97.8333,116.5 96.5,116.5C 96.4326,115.041 96.7659,113.708 97.5,112.5 Z"/></g>
<g><path style="opacity:1" fill="#090405" d="M 194.5,113.5 C 197.861,114.203 198.194,115.537 195.5,117.5C 193.358,116.563 193.024,115.23 194.5,113.5 Z"/></g>
<g><path style="opacity:1" fill="#160e0f" d="M 141.5,116.5 C 142.5,116.5 143.5,116.5 144.5,116.5C 144.778,118.346 144.111,119.68 142.5,120.5C 141.571,119.311 141.238,117.978 141.5,116.5 Z"/></g>
<g><path style="opacity:1" fill="#201416" d="M 266.5,115.5 C 268.912,115.694 269.912,117.027 269.5,119.5C 268.167,119.5 266.833,119.5 265.5,119.5C 265.433,118.041 265.766,116.708 266.5,115.5 Z"/></g>
<g><path style="opacity:1" fill="#180f10" d="M 359.5,115.5 C 360.5,115.5 361.5,115.5 362.5,115.5C 361.352,120.43 360.685,125.43 360.5,130.5C 359.167,130.5 357.833,130.5 356.5,130.5C 356.12,125.181 357.12,120.181 359.5,115.5 Z"/></g>
<g><path style="opacity:1" fill="#0f0708" d="M 319.5,116.5 C 322.861,117.203 323.194,118.537 320.5,120.5C 318.358,119.563 318.024,118.23 319.5,116.5 Z"/></g>
<g><path style="opacity:1" fill="#180e0f" d="M 93.5,118.5 C 94.9953,118.415 95.9953,119.081 96.5,120.5C 95.3611,123.389 94.6945,126.389 94.5,129.5C 96.6691,138.504 96.8357,147.504 95,156.5C 93.9887,157.337 92.8221,157.67 91.5,157.5C 92.7296,147.638 92.3963,137.805 90.5,128C 90.1094,124.329 91.1094,121.162 93.5,118.5 Z"/></g>
<g><path style="opacity:1" fill="#11090a" d="M 190.5,118.5 C 191.5,118.5 192.5,118.5 193.5,118.5C 192.326,131.486 192.326,144.486 193.5,157.5C 192.178,157.67 191.011,157.337 190,156.5C 188.728,144.855 188.395,133.188 189,121.5C 189.513,120.473 190.013,119.473 190.5,118.5 Z"/></g>
<g><path style="opacity:1" fill="#0e0708" d="M 316.5,120.5 C 319.838,121.193 320.338,122.86 318,125.5C 317.269,138.188 317.435,150.855 318.5,163.5C 317.178,163.67 316.011,163.337 315,162.5C 313.581,150.196 313.248,137.862 314,125.5C 314.847,123.807 315.68,122.14 316.5,120.5 Z"/></g>
<g><path style="opacity:1" fill="#130a0c" d="M 138.5,121.5 C 140.252,121.418 141.252,122.251 141.5,124C 135.126,137.621 130.459,151.788 127.5,166.5C 125.365,166.853 124.032,166.02 123.5,164C 127.22,149.337 132.22,135.17 138.5,121.5 Z"/></g>
<g><path style="opacity:1" fill="#060303" d="M 215.5,121.5 C 218.522,121.428 220.688,122.762 222,125.5C 223.527,131.415 223.861,137.415 223,143.5C 221.64,148.368 218.474,150.701 213.5,150.5C 213.334,141.494 213.5,132.494 214,123.5C 214.717,122.956 215.217,122.289 215.5,121.5 Z"/></g>
<g><path style="opacity:1" fill="#150c0d" d="M 262.5,121.5 C 264.252,121.418 265.252,122.251 265.5,124C 259.5,138.013 254.333,152.18 250,166.5C 248.268,166.266 247.434,165.266 247.5,163.5C 251.313,149.059 256.313,135.059 262.5,121.5 Z"/></g>
<g><path style="opacity:1" fill="#12090b" d="M 149.5,139.5 C 153.634,144.667 155.634,150.667 155.5,157.5C 151.833,157.5 148.167,157.5 144.5,157.5C 145.161,151.177 146.828,145.177 149.5,139.5 Z"/></g>
<g><path style="opacity:1" fill="#150c0d" d="M 272.5,140.5 C 274.911,140.137 276.411,141.137 277,143.5C 278.792,148 279.625,152.667 279.5,157.5C 275.833,157.5 272.167,157.5 268.5,157.5C 269.087,151.637 270.42,145.971 272.5,140.5 Z"/></g>
</svg>
